<?xml version="1.0" encoding="utf-8"?>
<!-- Generator: Adobe Illustrator 22.0.1, SVG Export Plug-In . SVG Version: 6.00 Build 0)  -->
<svg version="1.1" id="Layer_1" xmlns="http://www.w3.org/2000/svg" xmlns:xlink="http://www.w3.org/1999/xlink" x="0px" y="0px"
	 viewBox="0 0 352.2 66.2" style="enable-background:new 0 0 352.2 66.2;" xml:space="preserve">
<style type="text/css">
	.st0{fill:#DA9089;}
	.st1{fill:#231F20;}
	.st2{fill:#6A4025;}
	.st3{fill:none;stroke:#FDFEFE;stroke-miterlimit:10;}
</style>
<rect class="st0" width="352.2" height="66.2"/>
<path class="st1" d="M45.2,47.6c-0.9,0-1.8,0-2.6-0.2s-1.5-0.3-2-0.4c-0.7-0.2-1.3-0.4-1.8-0.6c-2-1-3.6-2.3-4.6-4.1
	c-0.7-1.1-1.1-2.3-1.4-3.6c-0.3-1.3-0.4-2.8-0.2-4.3c0.1-1.8,0.5-3.7,1.1-5.7s1.5-4.2,2.5-6.5c2.4-5,5.2-9.1,8.5-12.2
	c-0.4-0.2-1-0.5-1.7-0.9S41.5,8.4,40.6,8c-0.9-0.4-1.8-0.8-2.9-1.2c-1-0.4-2.1-0.8-3.2-1.1c-2.2-0.7-4.3-1.1-6.3-1.2h-0.7
	c-0.2,0-0.5,0-0.7,0s-0.4,0-0.6,0.1C25,4.7,24,5,23.2,5.5s-1.5,1.1-2,1.8s-1,1.3-1.4,2s-0.7,1.2-1.1,1.5c-0.5,0.5-0.9,0.8-1.2,0.9
	c-0.4,0.1-0.6,0.1-0.9,0s-0.6-0.3-0.8-0.6c-0.4-0.6-0.5-1.2-0.2-1.8s0.6-1.2,1.1-1.7C17.3,7,18,6.4,18.9,5.8c0.3-0.2,0.6-0.4,1-0.6
	c0.3-0.2,0.7-0.4,1.2-0.6s1-0.4,1.6-0.7c0.3-0.1,0.6-0.1,0.9-0.3c0.3-0.1,0.6-0.1,0.9-0.2s0.7-0.2,1-0.2c1.3-0.1,2.7-0.1,4.2,0
	s3.1,0.5,4.8,0.9S38,5.1,40,6c2,0.8,4,1.7,6.2,2.5c0.6-0.5,1.2-1,1.9-1.4c0.6-0.4,1.2-0.8,1.9-1.2s1.4-0.8,2.2-1.1
	c1.1-0.4,2-0.7,2.9-0.9c0.9-0.2,1.7-0.4,2.4-0.5c0.1,0,0.4-0.1,1-0.1s1.3,0,2,0c1.4,0.2,2.4,0.6,2.9,1.2s0.8,1.2,0.9,1.8
	c0,0.1,0,0.3,0,0.7c0,0.4-0.2,1-0.5,1.6c-0.3,0.6-0.8,1.2-1.5,1.9s-1.9,1.3-3.4,1.8c-0.8,0.3-1.7,0.5-2.8,0.6c-1,0.1-2.1,0.1-3.2,0
	c-0.9-0.1-1.8-0.2-2.7-0.5c-0.9-0.2-1.8-0.5-2.7-0.9c-2,2.1-4.2,5-6.5,8.7c-1.7,2.8-3,5.4-3.8,7.8s-1.3,4.6-1.5,6.5s0,3.7,0.4,5.1
	c0.4,1.5,1.1,2.7,1.9,3.7c0.9,1,1.9,1.7,3.1,2.2c1.2,0.5,2.5,0.7,3.8,0.6c1-0.1,2-0.2,2.9-0.4s1.7-0.4,2.4-0.7
	c0.8-0.3,1.5-0.6,2.2-0.9c1.1-0.6,2.3-1.3,3.6-2.3s2.7-2.2,4.2-3.8s3-3.4,4.5-5.7c1.6-2.2,3.1-4.9,4.7-7.9c0.3-0.4,0.7-0.5,1-0.4
	c0.2,0.1,0.3,0.2,0.4,0.4c0,0.2,0,0.4-0.1,0.6c-1.5,2.8-3,5.3-4.5,7.6c-1.6,2.3-3.2,4.4-4.9,6.2c-1.4,1.5-2.8,2.7-4.2,3.8
	s-2.8,2-4.3,2.8c-1.9,0.9-3.5,1.5-4.8,1.7C46.9,47.5,45.9,47.6,45.2,47.6z M61,9.7c0.5-0.3,1-0.7,1.2-1c0.3-0.4,0.5-0.7,0.6-1
	C63,7.3,63,6.9,63,6.5c-0.2-0.9-0.8-1.4-1.8-1.7c-1-0.2-2.1-0.1-3.3,0.1c-1,0.2-2.2,0.7-3.6,1.4c-1.4,0.7-3,1.8-4.6,3.2
	c1,0.3,2,0.6,3,0.8s2,0.3,3,0.4c1.3,0.1,2.4,0,3.3-0.3S60.5,10,61,9.7z"/>
<path class="st1" d="M79.9,24c0,0.4,0,0.8,0,1.3c-0.1,0.4-0.2,1-0.3,1.6c-0.1,0.7-0.4,1.4-0.7,2.2c0.3,0.1,0.6,0.1,1.1,0.1
	c0.4,0,0.9,0,1.3-0.1c0.4,0,0.8-0.1,1.2-0.2c0.4-0.1,0.7-0.1,0.9-0.2c0.2-0.1,0.4-0.1,0.4,0s0,0.2,0,0.3c-0.1,0.1-0.2,0.3-0.3,0.6
	c-0.5,0.1-1,0.3-1.5,0.4s-1,0.2-1.6,0.2c-0.6,0.1-1.3,0.1-2,0c-0.6,1.1-1.3,2.1-2,2.8c-0.7,0.8-1.4,1.4-2,1.8
	c-0.1,0.1-0.5,0.3-1,0.7c-0.5,0.3-1.1,0.6-1.8,0.9c-0.2,0.1-0.5,0.1-0.7,0.2c-0.2,0.1-0.5,0.1-0.8,0.1s-0.6,0-0.9,0
	c-0.3-0.1-0.7-0.1-1.1-0.2S67.4,36.2,67,36c-0.3-0.2-0.6-0.6-0.7-1c-0.1-0.5-0.2-1-0.2-1.6s0.1-1.2,0.2-1.9c0.1-0.7,0.3-1.4,0.6-2.1
	c0.2-0.5,0.3-0.9,0.5-1.3s0.3-0.7,0.5-1s0.3-0.6,0.5-0.8c-0.4-0.6-0.7-1.2-0.8-1.8c-0.1-0.6-0.1-1.2,0-1.8c0.1-0.6,0.3-1.1,0.6-1.6
	c0.3-0.5,0.6-1,1-1.3c0.6-0.6,1.2-1,1.9-1.2c0.7-0.2,1.4-0.4,2-0.4c0.7,0,1.5,0,2.2,0.2c0.9,0.2,1.7,0.5,2.2,0.9
	c0.6,0.4,1.1,0.9,1.4,1.4c0.4,0.5,0.6,1.1,0.7,1.7C79.8,22.8,79.9,23.4,79.9,24z M69.9,35.7c0.2,0,0.3,0,0.5-0.1s0.3-0.2,0.5-0.3
	c0.1-0.1,0.3-0.2,0.4-0.3c0.8-0.7,1.6-1.5,2.3-2.4c0.7-0.9,1.3-1.9,1.8-2.9c-0.6-0.1-1.1-0.2-1.6-0.3c-0.5-0.1-0.9-0.2-1.2-0.4
	c-0.4-0.1-0.7-0.3-1-0.4c-0.3,0.5-0.6,1.1-0.9,1.7S70,31.5,69.8,32c-0.2,0.6-0.4,1.1-0.6,1.6c-0.1,0.5-0.2,0.9-0.2,1.3
	C69.1,35.4,69.4,35.6,69.9,35.7z M72.2,27.6c0.3,0.2,0.7,0.3,1,0.4s0.7,0.3,1.2,0.4s1,0.2,1.5,0.3c0.5-1.1,0.8-2.1,1-3.2
	c0.2-1,0.3-2,0.2-2.8c-0.1-0.6-0.2-1.2-0.5-1.6s-0.5-0.8-0.8-1.1s-0.6-0.5-0.9-0.6c-0.3-0.2-0.5-0.3-0.7-0.3
	c-0.4-0.1-0.8-0.2-1.1-0.1c-0.4,0-0.7,0-0.9,0.1c-0.3,0.1-0.6,0.2-0.9,0.3c-0.3,0.2-0.7,0.4-0.9,0.8c-0.3,0.4-0.5,0.8-0.7,1.3
	s-0.3,1-0.3,1.6s0,1.1,0.2,1.6c0.4-0.5,0.8-1,1.1-1.3c0.3-0.4,0.6-0.7,1-0.9c0.3-0.3,0.5-0.5,0.9-0.6c0.3-0.1,0.5-0.3,0.9-0.4
	c0.3-0.1,0.6-0.1,0.9,0s0.6,0.4,0.6,0.7c0.1,0.3,0.1,0.7,0,1.1s-0.3,0.9-0.6,1.4c-0.3,0.5-0.6,1-0.9,1.4c-0.1,0.2-0.3,0.4-0.5,0.7
	C72.7,27,72.4,27.3,72.2,27.6z"/>
<path class="st1" d="M83.2,32.2c-0.1,0.5,0,0.9,0.1,1.4s0.4,0.8,0.9,1c0.1,0.1,0.2,0.1,0.4,0.1c0.1,0,0.3,0.1,0.4,0.1
	c0.9,0.1,1.7,0.1,2.5-0.2c0.7-0.2,1.4-0.5,1.9-0.9c0.5-0.3,0.8-0.5,1.2-0.8c0.3-0.3,0.6-0.5,0.8-0.7c0.5-0.5,1-1,1.4-1.5
	c0.5-0.5,0.9-1,1.2-1.5c0.4-0.5,0.8-1,1.2-1.6c0.4-0.6,0.8-1.1,1.2-1.7c0.4-0.6,0.7-1,1-1.5c0.1-0.1,0.1-0.2,0.2-0.3
	c0.1-0.1,0.3-0.2,0.4-0.2c0.1,0.1,0.3,0.2,0.3,0.3c0.1,0.1,0.1,0.4,0,0.6c-0.2,0.5-0.5,0.9-0.8,1.4c-0.2,0.4-0.5,0.8-0.8,1.3
	s-0.6,1-0.9,1.4c-0.1,0.2-0.2,0.4-0.4,0.6c-0.1,0.2-0.3,0.4-0.5,0.6s-0.4,0.4-0.6,0.7c-0.2,0.3-0.5,0.6-1,1.2
	c-0.5,0.6-1.1,1.1-1.8,1.6c-0.7,0.6-1.5,1.1-2.4,1.6s-1.9,0.8-2.9,1c-1.1,0.2-2,0.2-2.7,0.1c-0.7-0.1-1.3-0.3-1.7-0.5
	c-0.5-0.3-0.9-0.6-1.2-1c-0.4-0.6-0.6-1.3-0.7-2.3s0.1-2.2,0.5-3.7c0.3-1.1,0.6-2.1,1.1-3c0.4-0.9,0.8-1.7,1.2-2.3
	c0.5-0.7,1-1.4,1.5-1.9c0.5-0.6,1-1.1,1.5-1.5s1-0.7,1.4-0.9c0.5-0.3,1-0.5,1.4-0.6c0.3-0.1,0.6-0.2,1-0.2c0.3,0,0.7,0,1,0
	c0.4,0.1,0.8,0.2,1.2,0.4c0.1,0.1,0.2,0.1,0.3,0.2c0.2,0.1,0.4,0.3,0.7,0.6c0.3,0.3,0.5,0.7,0.6,1.1s0.3,0.8,0.3,1.4
	c0.1,0.5,0.1,1.1,0,1.8c0,0.1-0.1,0.4-0.1,0.6c-0.1,0.3-0.2,0.6-0.3,0.8s-0.3,0.5-0.5,0.7s-0.4,0.3-0.7,0.3c-0.4,0-0.6-0.1-0.8-0.2
	c-0.2-0.1-0.3-0.3-0.3-0.6c0-0.3,0-0.6,0.1-1s0.2-0.8,0.4-1.2c0.2-0.4,0.3-0.7,0.4-1.1s0.1-0.7,0-0.9c-0.1-0.2-0.2-0.3-0.4-0.3
	c-0.6-0.3-1.4,0-2.3,0.7c-0.9,0.8-1.9,1.9-2.9,3.3c-0.5,0.6-0.9,1.3-1.3,2.1c-0.4,0.8-0.8,1.6-1.1,2.4l0,0c-0.1,0.2-0.2,0.4-0.3,0.7
	c-0.1,0.2-0.1,0.5-0.2,0.8C83.3,31.6,83.2,31.9,83.2,32.2z"/>
<path class="st1" d="M108.3,24c0,0.4,0,0.8,0,1.3c-0.1,0.4-0.2,1-0.3,1.6c-0.1,0.7-0.4,1.4-0.7,2.2c0.3,0.1,0.6,0.1,1.1,0.1
	c0.4,0,0.9,0,1.3-0.1c0.4,0,0.8-0.1,1.2-0.2c0.4-0.1,0.7-0.1,0.9-0.2c0.2-0.1,0.4-0.1,0.4,0s0,0.2,0,0.3c-0.1,0.1-0.2,0.3-0.3,0.6
	c-0.5,0.1-1,0.3-1.5,0.4s-1,0.2-1.6,0.2c-0.6,0.1-1.3,0.1-2,0c-0.6,1.1-1.3,2.1-2,2.8c-0.7,0.8-1.4,1.4-2,1.8
	c-0.1,0.1-0.5,0.3-1,0.7c-0.5,0.3-1.1,0.6-1.8,0.9c-0.2,0.1-0.5,0.1-0.7,0.2c-0.2,0.1-0.5,0.1-0.8,0.1s-0.6,0-0.9,0
	c-0.3-0.1-0.7-0.1-1.1-0.2s-0.7-0.3-1.1-0.5c-0.3-0.2-0.6-0.6-0.7-1c-0.1-0.5-0.2-1-0.2-1.6s0.1-1.2,0.2-1.9
	c0.1-0.7,0.3-1.4,0.6-2.1c0.2-0.5,0.3-0.9,0.5-1.3s0.3-0.7,0.5-1s0.3-0.6,0.5-0.8c-0.4-0.6-0.7-1.2-0.8-1.8c-0.1-0.6-0.1-1.2,0-1.8
	c0.1-0.6,0.3-1.1,0.6-1.6c0.3-0.5,0.6-1,1-1.3c0.6-0.6,1.2-1,1.9-1.2c0.7-0.2,1.4-0.4,2-0.4c0.7,0,1.5,0,2.2,0.2
	c0.9,0.2,1.7,0.5,2.2,0.9c0.6,0.4,1.1,0.9,1.4,1.4c0.4,0.5,0.6,1.1,0.7,1.7C108.2,22.8,108.3,23.4,108.3,24z M98.3,35.7
	c0.2,0,0.3,0,0.5-0.1s0.3-0.2,0.5-0.3c0.1-0.1,0.3-0.2,0.4-0.3c0.8-0.7,1.6-1.5,2.3-2.4c0.7-0.9,1.3-1.9,1.8-2.9
	c-0.6-0.1-1.1-0.2-1.6-0.3c-0.5-0.1-0.9-0.2-1.2-0.4c-0.4-0.1-0.7-0.3-1-0.4c-0.3,0.5-0.6,1.1-0.9,1.7s-0.6,1.2-0.8,1.7
	c-0.2,0.6-0.4,1.1-0.6,1.6c-0.1,0.5-0.2,0.9-0.2,1.3C97.5,35.4,97.8,35.6,98.3,35.7z M100.6,27.6c0.3,0.2,0.7,0.3,1,0.4
	s0.7,0.3,1.2,0.4s1,0.2,1.5,0.3c0.5-1.1,0.8-2.1,1-3.2c0.2-1,0.3-2,0.2-2.8c-0.1-0.6-0.2-1.2-0.5-1.6s-0.5-0.8-0.8-1.1
	s-0.6-0.5-0.9-0.6c-0.3-0.2-0.5-0.3-0.7-0.3c-0.4-0.1-0.8-0.2-1.1-0.1c-0.4,0-0.7,0-0.9,0.1c-0.3,0.1-0.6,0.2-0.9,0.3
	c-0.3,0.2-0.7,0.4-0.9,0.8c-0.3,0.4-0.5,0.8-0.7,1.3s-0.3,1-0.3,1.6s0,1.1,0.2,1.6c0.4-0.5,0.8-1,1.1-1.3c0.3-0.4,0.6-0.7,1-0.9
	c0.3-0.3,0.5-0.5,0.9-0.6c0.3-0.1,0.5-0.3,0.9-0.4c0.3-0.1,0.6-0.1,0.9,0s0.6,0.4,0.6,0.7c0.1,0.3,0.1,0.7,0,1.1s-0.3,0.9-0.6,1.4
	c-0.3,0.5-0.6,1-0.9,1.4c-0.1,0.2-0.3,0.4-0.5,0.7C101.1,27,100.9,27.3,100.6,27.6z"/>
<path class="st1" d="M117,15.2c0,1.3-0.4,2.5-1.3,3.5s-1.9,1.6-3.1,1.6c-0.3,0-0.5-0.1-0.7-0.2s-0.2-0.3-0.2-0.7
	c0-0.4,0.1-0.7,0.3-1.1c0.6,0.2,1.2,0.2,1.7,0s0.8-0.8,0.9-1.8c-0.5-0.1-0.9-0.3-1.1-0.6c-0.2-0.3-0.3-0.6-0.3-1
	c0-0.5,0.2-1,0.6-1.3s0.9-0.5,1.5-0.5s1.1,0.2,1.4,0.5C116.8,14,117,14.5,117,15.2z"/>
<path class="st1" d="M120.7,38.4c-0.4,0.2-0.7,0.4-1.1,0.5s-0.7,0.1-1,0.1s-0.7,0-1-0.1c-0.6-0.1-1.1-0.4-1.4-0.7s-0.5-0.7-0.7-1.1
	c-0.1-0.3-0.2-0.6-0.2-0.9c0-0.3,0-0.6,0-0.8c0-0.3,0.1-0.6,0.2-0.8c0.1-0.3,0.2-0.6,0.5-1c0.2-0.4,0.6-0.7,1.1-1
	c0.7-0.5,1.6-0.8,2.7-1c0.1-0.8,0.1-1.6,0-2.5c0-0.5-0.1-0.9-0.1-1.3c-0.1-0.8-0.2-1.4-0.3-1.9c-0.1-0.3-0.1-0.5-0.1-0.8
	c-0.2-1.3-0.1-2.5,0.1-3.6c0.3-1.1,0.6-2,1.1-2.7c0.3-0.5,0.7-0.9,1.1-1.3c0.3-0.3,0.8-0.6,1.3-0.7c0.5-0.2,1-0.2,1.6,0
	c0.3,0.1,0.7,0.3,1.1,0.6c0.4,0.3,0.6,0.9,0.6,1.6c0,0.2,0,0.5-0.1,1c-0.1,0.4-0.2,0.9-0.5,1.3c-0.2,0.3-0.4,0.6-0.6,0.8
	c-0.2,0.2-0.5,0.4-0.7,0.6c-0.3,0.1-0.5,0.2-0.6,0.2c-0.2,0-0.3-0.1-0.3-0.2c-0.2-0.2-0.2-0.4-0.1-0.6c0.1-0.1,0.1-0.2,0.3-0.3
	c0.3-0.2,0.5-0.5,0.8-0.8c0.2-0.3,0.4-0.7,0.5-1.1c0.1-0.5,0.2-0.8,0.1-1.1c0-0.2-0.1-0.4-0.3-0.5c-0.1-0.1-0.2-0.1-0.3-0.1
	c-0.1,0-0.2,0-0.3,0c-0.1,0-0.2,0.1-0.3,0.1c-0.4,0.3-0.7,0.7-0.9,1.2c-0.2,0.5-0.3,1.1-0.3,1.8c0,0.7,0,1.3,0,2
	c0.1,0.7,0.1,1.2,0.2,1.7s0.2,1.2,0.3,2.1c0.1,1,0.2,2,0.3,3.1c1.3-0.6,2.3-1,2.9-1.4s1.1-0.6,1.5-0.9c0.2-0.1,0.3-0.1,0.3-0.1
	c0.1,0.1,0.1,0.2,0.1,0.3s0,0.3,0,0.6c-0.5,0.3-1,0.7-1.5,1s-1,0.6-1.5,1c-0.5,0.3-1.1,0.6-1.7,0.9c0,0.7-0.1,1.3-0.2,1.9
	s-0.2,1.2-0.4,1.7c-0.1,0.4-0.3,0.8-0.5,1.2c-0.2,0.3-0.4,0.7-0.7,1.1C121.4,37.8,121.1,38.1,120.7,38.4z M117.1,36.3
	c0,0.1,0.1,0.2,0.1,0.3c0.1,0.1,0.1,0.1,0.2,0.2c0.1,0.1,0.2,0.1,0.3,0.2c0.2,0.1,0.4,0,0.6-0.1c0.2-0.2,0.3-0.3,0.5-0.5
	c0.1-0.2,0.3-0.5,0.4-0.9c0.1-0.3,0.2-0.6,0.2-0.9c0.1-0.3,0.1-0.5,0.2-0.8s0.1-0.5,0.1-0.8c-0.6,0.1-1.1,0.3-1.5,0.6
	s-0.6,0.5-0.8,0.8c-0.2,0.3-0.4,0.6-0.4,1c0,0.1,0,0.3,0,0.5C117,36,117,36.2,117.1,36.3z"/>
<path class="st1" d="M158.8,47.6c-0.9,0-1.8,0-2.6-0.2s-1.5-0.3-2-0.4c-0.7-0.2-1.3-0.4-1.8-0.6c-2-1-3.6-2.3-4.6-4.1
	c-0.7-1.1-1.1-2.3-1.4-3.6c-0.3-1.3-0.4-2.8-0.2-4.3c0.1-1.8,0.5-3.7,1.1-5.7s1.5-4.2,2.5-6.5c2.4-5,5.2-9.1,8.5-12.2
	c-0.4-0.2-1-0.5-1.7-0.9S155,8.4,154.2,8c-0.9-0.4-1.8-0.8-2.9-1.2c-1-0.4-2.1-0.8-3.2-1.1c-2.2-0.7-4.3-1.1-6.3-1.2h-0.7
	c-0.2,0-0.5,0-0.7,0s-0.4,0-0.6,0.1c-1.2,0.1-2.1,0.4-2.9,0.9c-0.8,0.5-1.5,1.1-2,1.8s-1,1.3-1.4,2s-0.7,1.2-1.1,1.5
	c-0.5,0.5-0.9,0.8-1.2,0.9c-0.4,0.1-0.6,0.1-0.9,0c-0.3-0.1-0.6-0.3-0.8-0.6c-0.4-0.6-0.5-1.2-0.2-1.8s0.6-1.2,1.1-1.7
	c0.5-0.6,1.2-1.2,2.1-1.7c0.3-0.2,0.6-0.4,1-0.6c0.3-0.2,0.7-0.4,1.2-0.6s1-0.4,1.6-0.7c0.3-0.1,0.6-0.1,0.9-0.3
	c0.3-0.1,0.6-0.1,0.9-0.2s0.7-0.2,1-0.2c1.3-0.1,2.7-0.1,4.2,0s3.1,0.5,4.8,0.9s3.5,1,5.5,1.9c2,0.8,4,1.7,6.2,2.5
	c0.6-0.5,1.2-1,1.9-1.4c0.6-0.4,1.2-0.8,1.9-1.2s1.4-0.8,2.2-1.1c1.1-0.4,2-0.7,2.9-0.9c0.9-0.2,1.7-0.4,2.4-0.5
	c0.1,0,0.4-0.1,1-0.1s1.3,0,2,0c1.4,0.2,2.4,0.6,2.9,1.2s0.8,1.2,0.9,1.8c0,0.1,0,0.3,0,0.7c0,0.4-0.2,1-0.5,1.6s-0.8,1.2-1.5,1.9
	s-1.9,1.3-3.4,1.8c-0.8,0.3-1.7,0.5-2.8,0.6c-1,0.1-2.1,0.1-3.2,0c-0.9-0.1-1.8-0.2-2.7-0.5c-0.9-0.2-1.8-0.5-2.7-0.9
	c-2,2.1-4.2,5-6.5,8.7c-1.7,2.8-3,5.4-3.8,7.8s-1.3,4.6-1.5,6.5s0,3.7,0.4,5.1c0.4,1.5,1.1,2.7,1.9,3.7c0.9,1,1.9,1.7,3.1,2.2
	c1.2,0.5,2.5,0.7,3.8,0.6c1-0.1,2-0.2,2.9-0.4s1.7-0.4,2.4-0.7c0.8-0.3,1.5-0.6,2.2-0.9c1.1-0.6,2.3-1.3,3.6-2.3s2.7-2.2,4.2-3.8
	s3-3.4,4.5-5.7c1.6-2.2,3.1-4.9,4.7-7.9c0.3-0.4,0.7-0.5,1-0.4c0.2,0.1,0.3,0.2,0.4,0.4c0,0.2,0,0.4-0.1,0.6c-1.5,2.8-3,5.3-4.5,7.6
	c-1.6,2.3-3.2,4.4-4.9,6.2c-1.4,1.5-2.8,2.7-4.2,3.8s-2.8,2-4.3,2.8c-1.9,0.9-3.5,1.5-4.8,1.7C160.4,47.5,159.4,47.6,158.8,47.6z
	 M174.6,9.7c0.5-0.3,1-0.7,1.2-1c0.3-0.4,0.5-0.7,0.6-1c0.1-0.4,0.2-0.8,0.2-1.2c-0.2-0.9-0.8-1.4-1.8-1.7c-1-0.2-2.1-0.1-3.3,0.1
	c-1,0.2-2.2,0.7-3.6,1.4c-1.4,0.7-3,1.8-4.6,3.2c1,0.3,2,0.6,3,0.8s2,0.3,3,0.4c1.3,0.1,2.4,0,3.3-0.3S174,10,174.6,9.7z"/>
<path class="st1" d="M183.4,33.6c0,0.1,0,0.3,0,0.4c0,0.1,0,0.2,0,0.3s0,0.2,0,0.2c0,0.2,0,0.4-0.1,0.6c-0.1,0.2-0.2,0.3-0.4,0.3
	c-0.1,0.1-0.3,0.1-0.4,0.1c-0.1,0-0.2,0-0.4,0s-0.3-0.1-0.4-0.2c-0.3-0.2-0.6-0.5-0.8-0.8c-0.2-0.5-0.4-1-0.4-1.6s0-1.2,0-1.7
	c0.1-0.6,0.1-1.2,0.3-1.8c0.2-0.9,0.4-1.8,0.7-2.7c0.3-0.9,0.6-1.8,0.9-2.6s0.6-1.6,0.9-2.3s0.6-1.3,0.8-1.8c0.5-1.1,1-2.1,1.5-3.1
	s1.1-2,1.7-3c-0.6,0-1.2,0-1.8,0c-0.5,0-1.1,0-1.7,0c-0.6,0-1.2,0-1.7-0.1c-1.2,0-2.2,0.1-3.1,0.4c-0.9,0.3-1.7,0.7-2.4,1.1
	c-0.7,0.4-1.3,0.9-1.8,1.3s-1,0.8-1.4,1c-0.6,0.3-1,0.4-1.4,0.4c-0.3,0-0.6-0.1-0.9-0.3c-0.3-0.2-0.4-0.5-0.6-0.9
	c-0.2-0.7-0.1-1.3,0.3-1.8s0.9-0.9,1.5-1.2c0.7-0.3,1.5-0.6,2.5-0.8c0.5-0.1,1.1-0.2,1.8-0.2c0.7-0.1,1.5-0.1,2.5-0.1s2.3,0,3.8,0.1
	c0.7,0,1.4,0,2,0s1.2,0,1.6-0.1c0.5,0,1-0.1,1.5-0.1c0.8-1.1,1.6-2.2,2.3-3.2c0.8-1,1.6-1.9,2.3-2.7s1.5-1.5,2.2-2s1.3-0.9,1.9-1.1
	c0.3-0.1,0.6-0.2,0.9-0.2c0.3,0,0.5,0,0.8,0s0.6,0.1,0.8,0.3c0.3,0.2,0.6,0.6,0.7,1c0.1,0.4,0.2,0.9,0.2,1.5s-0.2,1.3-0.6,2.2
	c-0.4,0.9-1,1.7-1.7,2.5c-0.7,0.7-1.5,1.3-2.5,1.8c-1,0.6-2.3,0.9-3.9,1c-0.4,0.7-0.8,1.4-1.2,2.1c-0.3,0.6-0.7,1.2-1,1.9
	c-0.4,0.7-0.7,1.3-1,1.9c-0.4,0.8-0.8,1.6-1.2,2.5c-0.4,0.8-0.8,1.6-1.2,2.6s-0.8,1.9-1.2,2.9c0.3-0.4,0.5-0.8,0.8-1.2
	c0.3-0.4,0.6-0.8,1-1.2c0.5-0.7,1.1-1.3,1.8-2c0.6-0.7,1.3-1.2,2-1.8c0.7-0.5,1.4-1,2-1.4c0.7-0.4,1.4-0.6,2-0.8
	c0.3-0.1,0.6-0.1,1,0c0.3,0.1,0.6,0.2,0.9,0.4c0.5,0.4,0.7,1,0.6,1.6c-0.1,0.6-0.2,1.2-0.4,1.6c-0.1,0.2-0.3,0.5-0.4,0.7
	c-0.1,0.2-0.3,0.5-0.4,0.7c-0.3,0.4-0.6,1-1.1,1.9s-0.9,1.7-1.4,2.6c-0.4,0.9-0.8,1.8-1.1,2.7c-0.3,0.9-0.4,1.6-0.4,2.2
	c0,0.2,0.1,0.4,0.2,0.6c0.1,0.2,0.3,0.2,0.7,0c0.3-0.2,0.7-0.5,1.1-0.9c0.4-0.4,0.7-0.8,1.1-1.2c0.4-0.5,0.8-1,1.2-1.6
	c0.5-0.6,0.9-1.3,1.3-1.9c0.4-0.7,0.8-1.3,1.1-1.8c0.3-0.6,0.6-1.1,0.9-1.5c0.3-0.4,0.5-0.8,0.7-1h0.1c0.1,0,0.3,0,0.4,0.1
	c0.1,0.1,0.2,0.2,0.1,0.3c0,0.1-0.1,0.2-0.2,0.5c-0.1,0.3-0.3,0.7-0.5,1.1c-0.6,1.2-1.2,2.4-1.9,3.5c-0.6,1-1.3,1.9-2.1,2.9
	c-0.8,1-1.7,1.8-2.6,2.3c-0.1,0-0.2,0.1-0.4,0.2c-0.2,0.1-0.5,0.2-0.9,0.3s-0.8,0-1.2,0c-0.4-0.1-0.9-0.3-1.3-0.6
	c-0.3-0.3-0.6-0.7-0.7-1.2c-0.1-0.5-0.1-1.2-0.1-1.9c0-0.7,0.2-1.5,0.3-2.2c0.2-0.8,0.4-1.5,0.7-2.3c0.2-0.5,0.4-1,0.7-1.6
	s0.6-1.1,0.8-1.6c0.3-0.6,0.6-1.1,0.9-1.7c-0.3,0.1-0.8,0.5-1.7,1.1c-0.8,0.6-1.7,1.5-2.7,2.5s-1.9,2.2-2.8,3.6
	C184.3,30.7,183.7,32.1,183.4,33.6z M198.9,5.6c-0.1-0.1-0.2-0.1-0.5-0.1c-0.2,0-0.6,0.1-1.1,0.5c-0.5,0.3-1.1,1-1.8,1.8
	c-0.8,0.9-1.7,2.2-2.8,3.9c0.7-0.1,1.4-0.3,2-0.5c0.6-0.3,1.1-0.5,1.5-0.8c0.5-0.3,0.9-0.6,1.2-1c0.6-0.7,1.1-1.3,1.3-1.8
	s0.4-0.9,0.4-1.2C199.1,6.1,199,5.8,198.9,5.6z"/>
<path class="st1" d="M210.8,24c0,0.4,0,0.8,0,1.3c-0.1,0.4-0.2,1-0.3,1.6c-0.1,0.7-0.4,1.4-0.7,2.2c0.3,0.1,0.6,0.1,1.1,0.1
	c0.4,0,0.9,0,1.3-0.1c0.4,0,0.8-0.1,1.2-0.2s0.7-0.1,0.9-0.2s0.4-0.1,0.4,0s0,0.2,0,0.3c-0.1,0.1-0.2,0.3-0.3,0.6
	c-0.5,0.1-1,0.3-1.5,0.4s-1,0.2-1.6,0.2c-0.6,0.1-1.3,0.1-2,0c-0.6,1.1-1.3,2.1-2,2.8c-0.7,0.8-1.4,1.4-2,1.8
	c-0.1,0.1-0.5,0.3-1,0.7c-0.5,0.3-1.1,0.6-1.8,0.9c-0.2,0.1-0.5,0.1-0.7,0.2c-0.2,0.1-0.5,0.1-0.8,0.1s-0.6,0-0.9,0
	c-0.3-0.1-0.7-0.1-1.1-0.2s-0.7-0.3-1.1-0.5c-0.3-0.2-0.6-0.6-0.7-1c-0.1-0.5-0.2-1-0.2-1.6s0.1-1.2,0.2-1.9
	c0.1-0.7,0.3-1.4,0.6-2.1c0.2-0.5,0.3-0.9,0.5-1.3s0.3-0.7,0.5-1s0.3-0.6,0.5-0.8c-0.4-0.6-0.7-1.2-0.8-1.8c-0.1-0.6-0.1-1.2,0-1.8
	c0.1-0.6,0.3-1.1,0.6-1.6s0.6-1,1-1.3c0.6-0.6,1.2-1,1.9-1.2s1.4-0.4,2-0.4c0.7,0,1.5,0,2.2,0.2c0.9,0.2,1.7,0.5,2.2,0.9
	c0.6,0.4,1.1,0.9,1.4,1.4c0.4,0.5,0.6,1.1,0.7,1.7C210.7,22.8,210.8,23.4,210.8,24z M200.8,35.7c0.2,0,0.3,0,0.5-0.1
	s0.3-0.2,0.5-0.3c0.1-0.1,0.3-0.2,0.4-0.3c0.8-0.7,1.6-1.5,2.3-2.4c0.7-0.9,1.3-1.9,1.8-2.9c-0.6-0.1-1.1-0.2-1.6-0.3
	c-0.5-0.1-0.9-0.2-1.2-0.4c-0.4-0.1-0.7-0.3-1-0.4c-0.3,0.5-0.6,1.1-0.9,1.7s-0.6,1.2-0.8,1.7c-0.2,0.6-0.4,1.1-0.6,1.6
	c-0.1,0.5-0.2,0.9-0.2,1.3C200,35.4,200.3,35.6,200.8,35.7z M203.1,27.6c0.3,0.2,0.7,0.3,1,0.4s0.7,0.3,1.2,0.4s1,0.2,1.5,0.3
	c0.5-1.1,0.8-2.1,1-3.2c0.2-1,0.3-2,0.2-2.8c-0.1-0.6-0.2-1.2-0.5-1.6s-0.5-0.8-0.8-1.1s-0.6-0.5-0.9-0.6c-0.3-0.2-0.5-0.3-0.7-0.3
	c-0.4-0.1-0.8-0.2-1.1-0.1c-0.4,0-0.7,0-0.9,0.1c-0.3,0.1-0.6,0.2-0.9,0.3c-0.3,0.2-0.7,0.4-0.9,0.8c-0.3,0.4-0.5,0.8-0.7,1.3
	s-0.3,1-0.3,1.6s0,1.1,0.2,1.6c0.4-0.5,0.8-1,1.1-1.3c0.3-0.4,0.6-0.7,1-0.9c0.3-0.3,0.5-0.5,0.9-0.6c0.3-0.1,0.5-0.3,0.9-0.4
	c0.3-0.1,0.6-0.1,0.9,0c0.3,0.1,0.6,0.4,0.6,0.7c0.1,0.3,0.1,0.7,0,1.1s-0.3,0.9-0.6,1.4s-0.6,1-0.9,1.4c-0.1,0.2-0.3,0.4-0.5,0.7
	C203.6,27,203.4,27.3,203.1,27.6z"/>
<path class="st1" d="M215.1,32.2c-0.1,0.5,0,0.9,0.1,1.4s0.4,0.8,0.9,1c0.1,0.1,0.2,0.1,0.4,0.1c0.1,0,0.3,0.1,0.4,0.1
	c0.9,0.1,1.7,0.1,2.5-0.2c0.7-0.2,1.4-0.5,1.9-0.9c0.5-0.3,0.8-0.5,1.2-0.8c0.3-0.3,0.6-0.5,0.8-0.7c0.5-0.5,1-1,1.4-1.5
	c0.5-0.5,0.9-1,1.2-1.5c0.4-0.5,0.8-1,1.2-1.6s0.8-1.1,1.2-1.7s0.7-1,1-1.5c0.1-0.1,0.1-0.2,0.2-0.3c0.1-0.1,0.3-0.2,0.4-0.2
	c0.1,0.1,0.3,0.2,0.3,0.3c0.1,0.1,0.1,0.4,0,0.6c-0.2,0.5-0.5,0.9-0.8,1.4c-0.2,0.4-0.5,0.8-0.8,1.3s-0.6,1-0.9,1.4
	c-0.1,0.2-0.2,0.4-0.4,0.6c-0.1,0.2-0.3,0.4-0.5,0.6s-0.4,0.4-0.6,0.7c-0.2,0.3-0.5,0.6-1,1.2c-0.5,0.6-1.1,1.1-1.8,1.6
	c-0.7,0.6-1.5,1.1-2.4,1.6s-1.9,0.8-2.9,1c-1.1,0.2-2,0.2-2.7,0.1c-0.7-0.1-1.3-0.3-1.7-0.5c-0.5-0.3-0.9-0.6-1.2-1
	c-0.4-0.6-0.6-1.3-0.7-2.3c-0.1-1,0.1-2.2,0.5-3.7c0.3-1.1,0.6-2.1,1.1-3c0.4-0.9,0.8-1.7,1.2-2.3c0.5-0.7,1-1.4,1.5-1.9
	c0.5-0.6,1-1.1,1.5-1.5s1-0.7,1.4-0.9c0.5-0.3,1-0.5,1.4-0.6c0.3-0.1,0.6-0.2,1-0.2c0.3,0,0.7,0,1,0c0.4,0.1,0.8,0.2,1.2,0.4
	c0.1,0.1,0.2,0.1,0.3,0.2c0.2,0.1,0.4,0.3,0.7,0.6c0.3,0.3,0.5,0.7,0.6,1.1s0.3,0.8,0.3,1.4c0.1,0.5,0.1,1.1,0,1.8
	c0,0.1-0.1,0.4-0.1,0.6c-0.1,0.3-0.2,0.6-0.3,0.8s-0.3,0.5-0.5,0.7s-0.4,0.3-0.7,0.3c-0.4,0-0.6-0.1-0.8-0.2s-0.3-0.3-0.3-0.6
	c0-0.3,0-0.6,0.1-1s0.2-0.8,0.4-1.2c0.2-0.4,0.3-0.7,0.4-1.1c0.1-0.4,0.1-0.7,0-0.9c-0.1-0.2-0.2-0.3-0.4-0.3
	c-0.6-0.3-1.4,0-2.3,0.7c-0.9,0.8-1.9,1.9-2.9,3.3c-0.5,0.6-0.9,1.3-1.3,2.1c-0.4,0.8-0.8,1.6-1.1,2.4l0,0c-0.1,0.2-0.2,0.4-0.3,0.7
	c-0.1,0.2-0.1,0.5-0.2,0.8C215.2,31.6,215.1,31.9,215.1,32.2z"/>
<g>
	<path class="st1" d="M249.9,12.5c0.8-1.1,1.6-2.2,2.3-3.2c0.8-1,1.6-1.9,2.3-2.7c0.7-0.8,1.5-1.5,2.2-2s1.3-0.9,1.9-1.1
		c0.3-0.1,0.6-0.2,0.9-0.2s0.5,0,0.8,0s0.6,0.1,0.8,0.3c0.3,0.2,0.6,0.6,0.7,1s0.2,0.9,0.2,1.5s-0.2,1.3-0.5,2.2
		c-0.4,0.9-1,1.7-1.7,2.5c-0.7,0.7-1.5,1.3-2.5,1.8s-2.3,0.9-3.9,1c-0.4,0.7-0.8,1.4-1.2,2.1c-0.3,0.6-0.7,1.2-1.1,1.9
		c-0.4,0.7-0.7,1.3-1,1.9c-1,1.8-1.8,3.7-2.6,5.4c-0.3,0.7-0.6,1.5-0.9,2.3c-0.3,0.8-0.6,1.6-0.8,2.3c-0.2,0.8-0.4,1.5-0.6,2.2
		c-0.2,0.7-0.2,1.3-0.1,1.9c0,0.2,0.1,0.4,0.2,0.6c0.1,0.2,0.3,0.2,0.6,0.1c0.7-0.2,1.3-0.6,2.1-1.3c0.7-0.7,1.4-1.4,2.1-2.1
		c0.7-0.9,1.5-1.8,2.2-2.9c0.4-0.6,0.8-1.1,1.2-1.7s0.7-1,1-1.5c0.1-0.1,0.2-0.2,0.3-0.3c0.1-0.1,0.3-0.2,0.4-0.2
		c0.1,0.1,0.2,0.2,0.3,0.3c0.1,0.1,0.1,0.4-0.1,0.6c-0.2,0.5-0.5,0.9-0.8,1.4c-0.2,0.4-0.5,0.8-0.8,1.3c-0.2,0.3-0.5,0.8-0.7,1.3
		c-0.7,1-1.5,2-2.3,2.8c-0.7,0.7-1.4,1.4-2.3,2.1c-0.8,0.7-1.7,1.1-2.6,1.2c-0.4,0.1-0.9,0.1-1.4,0.1s-1-0.3-1.5-0.7
		c-0.3-0.3-0.6-0.7-0.6-1.3c-0.1-0.6-0.1-1.2-0.1-1.8c0-0.7,0.1-1.5,0.3-2.2c0.2-0.9,0.4-1.8,0.7-2.7c0.3-0.9,0.6-1.8,0.9-2.7
		c0.3-0.9,0.6-1.6,0.9-2.3s0.6-1.3,0.8-1.8C245.9,19.9,247.8,15.8,249.9,12.5z M259.2,9.4c0.6-0.7,1.1-1.3,1.3-1.8
		c0.2-0.5,0.4-0.9,0.4-1.2c0.1-0.3,0-0.6-0.2-0.9c-0.1-0.1-0.2-0.1-0.5-0.1c-0.2,0-0.6,0.1-1.1,0.5c-0.5,0.3-1.1,1-1.8,1.8
		c-0.8,0.9-1.7,2.2-2.8,3.9c0.7-0.1,1.4-0.3,2-0.5c0.6-0.3,1.1-0.5,1.5-0.8C258.4,10.1,258.8,9.8,259.2,9.4z"/>
</g>
<path class="st1" d="M261,32.4c-0.3,0.5-0.8,1-1.2,1.5c-0.4,0.4-0.9,0.8-1.5,1.2s-1.3,0.7-2.1,0.9c-0.7,0.2-1.4,0.2-1.9,0
	c-0.6-0.2-1.1-0.6-1.4-1.1c-0.4-0.6-0.6-1.3-0.6-2.3c-0.1-1,0.1-2.1,0.5-3.5c0.3-1.1,0.6-2.1,1.1-3c0.4-0.9,0.8-1.7,1.2-2.3
	c0.5-0.7,1-1.4,1.5-1.9c0.5-0.6,1-1.1,1.6-1.6c0.5-0.4,1.1-0.8,1.8-1.1c0.7-0.3,1.5-0.5,2.3-0.6s1.5,0.1,2,0.4s0.9,0.7,1.2,1.3
	s0.4,1.6,0.2,2.8c0.3-0.2,0.5-0.4,0.8-0.4c0.3-0.1,0.5,0,0.8,0.1c0.3,0.2,0.5,0.5,0.6,0.8s0.1,0.7,0.1,1.1s-0.1,0.7-0.3,1.1
	c-0.1,0.4-0.2,0.6-0.4,0.9c-0.5,0.9-0.9,1.9-1.5,2.9c-0.5,1.1-0.9,2-1.3,3c-0.4,0.9-0.6,1.8-0.7,2.5s0,1.2,0.4,1.4
	c0.3-0.1,0.6-0.4,1-0.7s0.7-0.7,1-1.1c0.4-0.4,0.7-0.8,1-1.3s0.7-0.9,1-1.4c0.7-1.1,1.5-2.2,2.2-3.5c0.6-1,1.1-1.8,1.5-2.6
	c0.4-0.8,0.8-1.3,1.1-1.7c0.1-0.1,0.1-0.1,0.2-0.1c0.1-0.1,0.2,0,0.4,0c0.1,0.1,0.1,0.2,0,0.5c-0.3,0.7-0.6,1.5-1,2.4
	c-0.3,0.7-0.8,1.6-1.3,2.6c-0.6,1-1.2,2.1-2,3.2c-0.5,0.7-1,1.4-1.5,2s-1,1.1-1.6,1.7c-0.6,0.5-1.2,0.9-1.7,1.2
	c-0.4,0.2-0.7,0.3-1,0.3s-0.5,0-0.8,0c-0.3-0.1-0.5-0.2-0.6-0.3c-0.3-0.2-0.5-0.4-0.7-0.7c-0.2-0.2-0.3-0.5-0.4-0.7
	c-0.1-0.3-0.2-0.5-0.2-0.8c-0.1-0.4-0.1-0.9-0.1-1.4C260.8,33.6,260.9,33,261,32.4z M256.6,34.5c0.2-0.1,0.3-0.2,0.5-0.3
	s0.3-0.2,0.5-0.3s0.3-0.3,0.5-0.4c0.6-0.5,1.1-1,1.6-1.6s1-1.2,1.4-1.7c0.5-0.6,0.9-1.3,1.3-1.9c0.2-0.4,0.4-0.9,0.6-1.3
	s0.5-0.8,0.7-1.2c0.3-0.4,0.5-0.8,0.7-1.2c0-0.1,0.1-0.4,0.1-0.7c0-0.3,0-0.6,0-1c0-0.3-0.1-0.7-0.2-0.9c-0.1-0.3-0.3-0.5-0.5-0.6
	c-0.6-0.3-1.4,0-2.3,0.7c-0.9,0.8-1.9,1.9-3,3.3c-0.5,0.7-1,1.5-1.5,2.4s-0.9,1.8-1.2,2.7c-0.3,0.9-0.6,1.7-0.7,2.4
	c-0.2,0.7-0.2,1.2,0,1.5c0.1,0.3,0.4,0.5,0.7,0.4C256,34.8,256.3,34.7,256.6,34.5z"/>
<path class="st1" d="M269.3,10.6c1.6-0.2,3.1-0.4,4.4-0.6c1.3-0.1,2.4-0.3,3.3-0.4c1.1-0.1,2-0.2,2.8-0.3c0.5-0.7,0.8-1.2,1-1.5
	c0.6-0.9,1.1-1.6,1.5-2.1s0.8-1,1.2-1.3c0.3-0.3,0.7-0.6,1-0.7c0.3-0.1,0.6-0.2,0.9-0.3c0.3,0,0.6,0,0.9,0.3
	c0.2,0.2,0.4,0.5,0.4,0.8c0,0.3,0,0.7-0.1,1.1s-0.3,0.9-0.6,1.3c-0.3,0.5-0.5,0.9-0.9,1.4c0,0.1-0.1,0.1-0.1,0.2
	c-0.1,0.1-0.1,0.1-0.2,0.2c-0.1,0.1-0.1,0.2-0.2,0.3c0.7,0,1.3,0,1.9-0.1c0.6,0,1.2,0,1.8,0c1,0,2,0.1,2.9,0.2
	c0.8,0.1,1.7,0.2,2.7,0.4s1.8,0.5,2.6,0.9c0.3,0.1,0.5,0.3,0.8,0.5c0.2,0.1,0.5,0.3,0.7,0.6s0.5,0.5,0.7,0.8
	c0.1,0.2,0.1,0.4,0.2,0.6c0.1,0.2,0.1,0.4,0.1,0.7s0,0.5,0,0.9c-0.1,0.7-0.2,1.1-0.5,1.3c-0.2,0.2-0.5,0.3-0.7,0.3s-0.3-0.1-0.3-0.3
	s0.1-0.4,0.2-0.6c0.1-0.3,0.1-0.6,0.1-0.8s0-0.4,0-0.6c0-0.2-0.1-0.4-0.1-0.5c-0.1-0.3-0.3-0.5-0.6-0.8s-0.5-0.4-0.8-0.6
	c-0.3-0.2-0.7-0.3-1-0.5c-0.5-0.1-1-0.3-1.5-0.4c-0.5-0.1-1.1-0.2-1.7-0.3c-0.4,0-1.1-0.1-2-0.1c-2-0.1-4.2,0-6.6,0.1
	c-0.3,0.5-0.6,1-0.9,1.4c-0.3,0.5-0.5,0.9-0.7,1.2c-0.4,0.7-0.8,1.4-1.2,2.1c-0.3,0.6-0.7,1.2-1,1.9c-0.3,0.7-0.7,1.3-1,1.9
	c-1,1.8-1.8,3.7-2.6,5.4c-0.3,0.7-0.6,1.5-0.9,2.3s-0.6,1.6-0.8,2.3c-0.2,0.8-0.4,1.5-0.6,2.2c-0.1,0.7-0.2,1.3-0.1,1.9
	c0,0.2,0.1,0.4,0.2,0.6c0.1,0.2,0.3,0.2,0.6,0.1c0.8-0.2,1.5-0.7,2.4-1.6c0.7-0.8,1.4-1.5,2.2-2.3c0.6-0.7,1.2-1.5,1.8-2.4
	c0.4-0.6,0.8-1.1,1.2-1.7c0.4-0.6,0.7-1,1-1.5c0.1-0.1,0.1-0.2,0.2-0.3c0.1-0.1,0.3-0.2,0.4-0.2c0.1,0.1,0.3,0.2,0.3,0.3
	c0.1,0.1,0.1,0.4-0.1,0.6c-0.2,0.5-0.5,0.9-0.8,1.4c-0.2,0.4-0.5,0.8-0.8,1.3s-0.6,1-0.9,1.4c-0.7,1-1.5,2-2.3,2.8
	c-0.7,0.7-1.5,1.4-2.3,2.1c-0.9,0.7-1.7,1.1-2.6,1.2c-0.4,0.1-0.9,0.1-1.4,0.1s-1-0.3-1.5-0.7c-0.3-0.3-0.5-0.7-0.6-1.3
	s-0.1-1.2-0.1-1.8c0-0.7,0.1-1.5,0.3-2.2c0.2-0.8,0.4-1.6,0.6-2.5c0.2-0.8,0.5-1.6,0.8-2.4c0.4-1.2,0.9-2.5,1.4-3.7
	c0.5-1.3,1.1-2.5,1.6-3.6c0.6-1.2,1.1-2.3,1.7-3.3s1.1-2,1.6-2.8c-0.9,0.1-1.7,0.1-2.4,0.3c-0.7,0.1-1.4,0.2-2.1,0.3
	s-1.4,0.2-1.9,0.2c-0.5,0.1-1.1,0.2-1.7,0.3c-0.5,0.1-1.3,0.4-1.9,0.4l-2.5,0.1c-1.4-0.4-1.8-0.8-2.4-1.1c-0.5-0.3-0.8-0.5-1-0.8
	s-0.4-0.6-0.4-0.9c-0.1-0.3-0.1-0.5-0.1-0.7s0-0.4,0.1-0.4c0.1-0.2,0.1-0.4,0.2-0.6c0.1-0.1,0.1-0.3,0.3-0.4
	c0.1-0.1,0.2-0.2,0.4-0.2c0.5-0.1,0.7,0,0.8,0.3c0.1,0.3,0.1,0.6,0.1,1.1s0.2,0.9,0.6,1.2s1,0.6,1.7,0.9
	C266.4,10.8,268.7,10.8,269.3,10.6z"/>
<path class="st1" d="M285.4,34.9c-0.1,0-0.2,0.1-0.4,0.2c-0.2,0.1-0.6,0.2-0.9,0.3c-0.4,0.1-0.8,0.1-1.2,0c-0.4-0.1-0.9-0.3-1.3-0.6
	c-0.4-0.4-0.7-1-0.7-1.8c-0.1-0.8,0-1.7,0.2-2.8c0.2-1,0.5-2,0.9-3.1c0.4-1,0.8-1.9,1.2-2.7c0.7-1.1,1.2-2,1.7-2.7s0.9-1.2,1.3-1.6
	c0.3-0.3,0.6-0.5,0.9-0.7c0.2-0.1,0.5-0.3,0.8-0.3c0.3-0.1,0.6-0.1,0.9,0s0.5,0.4,0.6,0.7c0.1,0.3,0.1,0.7,0,1.2
	c-0.1,0.4-0.3,0.9-0.5,1.4s-0.5,1-0.9,1.5c-0.3,0.4-0.6,1-1.1,1.9s-0.9,1.7-1.4,2.6c-0.4,0.9-0.8,1.8-1.1,2.7
	c-0.3,0.9-0.4,1.6-0.4,2.2c0,0.2,0.1,0.4,0.2,0.6c0.1,0.2,0.3,0.2,0.7,0c0.2-0.1,0.4-0.2,0.6-0.4s0.5-0.4,0.7-0.6
	c0.3-0.3,0.5-0.5,0.7-0.8s0.4-0.5,0.7-0.8c0.2-0.3,0.4-0.6,0.7-0.9c0.4-0.6,0.8-1.3,1.2-1.9c0.4-0.7,0.8-1.3,1.2-1.8
	c0.3-0.6,0.6-1.1,0.9-1.5s0.5-0.8,0.7-1h0.1h0.1c0.1,0,0.1,0,0.2,0s0.1,0,0.2,0c0.1,0.1,0.2,0.2,0.2,0.4c-0.1,0.2-0.3,0.7-0.7,1.7
	c-0.2,0.5-0.4,1-0.7,1.5c-0.3,0.6-0.6,1.2-1,1.8c-0.4,0.7-0.8,1.3-1.3,1.9c-0.4,0.6-0.9,1.2-1.5,1.8c-0.2,0.2-0.5,0.4-0.7,0.6
	c-0.2,0.2-0.4,0.4-0.7,0.6C285.9,34.6,285.7,34.8,285.4,34.9z M295.9,9.2c0.3,0.2,0.5,0.5,0.6,0.8c0.1,0.2,0.1,0.5,0.1,0.8
	c-0.1,0.3-0.3,0.6-0.6,0.9c-0.5,0.4-1,0.9-1.7,1.4c-0.6,0.5-1.2,1-1.8,1.6s-1,1.1-1.3,1.6c-0.3,0.6-0.4,1.1-0.3,1.6
	c0,0.1,0,0.2,0,0.3c0,0.2-0.1,0.4-0.4,0.4c-0.3,0.1-0.6,0-0.8-0.2c-0.2-0.2-0.4-0.4-0.5-0.7c-0.1-0.4-0.2-0.9-0.1-1.5
	c0-0.6,0.2-1.3,0.4-2c0.2-0.7,0.5-1.4,1-2c0.4-0.7,0.9-1.3,1.5-1.8c0.5-0.4,1-0.8,1.5-1c0.4-0.2,0.8-0.4,1.3-0.4
	C295.1,8.8,295.5,8.9,295.9,9.2z"/>
<path class="st1" d="M293.6,34.6c0.5,0.3,1,0.4,1.6,0.3c0.6-0.1,1.2-0.2,1.7-0.3c0.6-0.2,1.3-0.5,1.9-0.8c0.4-0.3,0.8-0.5,1.1-0.8
	c0.3-0.3,0.6-0.5,0.8-0.7c0.5-0.5,1-1,1.4-1.5c0.5-0.5,0.9-1,1.2-1.5c0.4-0.5,0.8-1,1.2-1.6c0.4-0.6,0.8-1.1,1.2-1.7
	c0.4-0.6,0.7-1,1-1.5c0.1-0.1,0.2-0.2,0.3-0.3c0.1-0.1,0.3-0.2,0.4-0.2c0.1,0.1,0.3,0.2,0.3,0.3c0.1,0.1,0.1,0.4-0.1,0.6
	c-0.2,0.5-0.5,0.9-0.8,1.4c-0.2,0.4-0.5,0.8-0.8,1.3s-0.6,1-0.9,1.4c-0.1,0.2-0.2,0.4-0.4,0.6c-0.3,0.3-0.6,0.8-1,1.3
	c-0.2,0.3-0.5,0.6-1,1.2c-0.5,0.5-1.1,1.1-1.8,1.6c-0.7,0.6-1.5,1.1-2.4,1.6s-1.9,0.8-2.9,1c-1.1,0.2-2,0.2-2.7,0.1
	c-0.7-0.1-1.3-0.3-1.7-0.5c-0.4-0.2-0.8-0.6-1.2-1c-0.4-0.6-0.6-1.3-0.7-2.3s0.1-2.2,0.5-3.7c0.3-1.1,0.6-2.1,1.1-3
	c0.4-0.9,0.8-1.7,1.2-2.3c0.5-0.7,1-1.4,1.5-1.9c0.5-0.6,1-1.1,1.5-1.5s1-0.7,1.4-0.9c0.5-0.3,1-0.5,1.4-0.6c0.3-0.1,0.6-0.2,1-0.2
	c0.3,0,0.7,0,1,0c0.4,0.1,0.8,0.2,1.2,0.4c0.1,0.1,0.3,0.2,0.5,0.3c0.1,0.1,0.3,0.3,0.4,0.4c0.2,0.2,0.3,0.4,0.4,0.6
	c0.2,0.4,0.3,0.8,0.4,1.3c0.1,0.4,0.1,0.9,0.1,1.5s-0.1,1.2-0.4,1.9l0,0c-0.3,0.7-0.6,1.4-1.1,2.1s-1.1,1.3-1.9,1.9
	c-0.7,0.5-1.4,0.9-2,1.3c-0.7,0.4-1.3,0.6-1.9,0.9c-0.6,0.2-1.1,0.4-1.6,0.5s-0.9,0.2-1.2,0.2c-0.1,0.5,0,1,0.1,1.5
	C292.8,34,293.1,34.3,293.6,34.6z M300.9,25c0.3-0.7,0.5-1.3,0.6-1.8s0-0.8,0-1.1c-0.1-0.3-0.3-0.6-0.5-0.7c-0.7-0.3-1.4,0-2.3,0.7
	c-0.9,0.8-1.9,1.9-2.9,3.3c-0.4,0.6-0.8,1.2-1.1,1.7c-0.3,0.5-0.6,1.1-0.9,1.7s-0.5,1.3-0.7,1.9c0.8-0.2,1.6-0.5,2.5-0.9
	c0.8-0.4,1.6-0.9,2.3-1.4c0.7-0.5,1.4-1.1,1.9-1.6C300.2,26.2,300.6,25.6,300.9,25z"/>
<path class="st1" d="M316.6,21.2c0-0.1-0.1-0.2-0.2-0.3c-0.1,0-0.1,0-0.2,0s-0.4,0.2-0.9,0.5s-1,0.8-1.6,1.3c-0.6,0.6-1.2,1.2-1.9,2
	c-0.7,0.8-1.3,1.6-1.9,2.5s-1.1,1.8-1.5,2.8s-0.6,2-0.7,2.9v0.3c0,0.1,0,0.4,0.1,0.6c0.1,0.2,0.1,0.5,0.1,0.7c0,0.3-0.2,0.5-0.4,0.6
	c-0.4,0.2-0.8,0.2-1.2,0c-0.4-0.2-0.7-0.4-0.9-0.7c-0.4-0.8-0.6-1.6-0.6-2.6c0-1,0.1-1.9,0.3-2.7c0.3-1.5,0.8-3,1.3-4.4
	c0.6-1.4,1.3-2.8,2-4.2c0.2-0.3,0.4-0.6,0.6-0.9s0.5-0.6,0.8-0.9s0.6-0.4,1-0.6c0.4-0.1,0.7-0.1,1.1,0s0.6,0.4,0.7,0.7
	c0.1,0.3,0.1,0.7,0,1c-0.1,0.4-0.2,0.7-0.4,1.1c-0.2,0.4-0.3,0.6-0.5,0.9c-0.7,1.1-1.3,2.3-2,3.5c0.5-0.7,1-1.4,1.5-2.1
	s1.1-1.3,1.6-1.9c0.6-0.6,1.1-1.1,1.7-1.5s1.1-0.7,1.7-0.7c0.6-0.1,1.1-0.1,1.5,0.2c0.4,0.2,0.7,0.5,0.8,0.9
	c0.1,0.5,0.1,1.1-0.2,1.9c-0.3,0.7-0.6,1.3-1,1.8c-0.1,0.2-0.3,0.4-0.5,0.5c-0.1,0.1-0.3,0.2-0.5,0.2s-0.4,0-0.6-0.1
	c-0.4-0.2-0.5-0.4-0.5-0.7c0-0.3,0.1-0.6,0.3-0.9c0.2-0.3,0.4-0.6,0.6-0.9C316.5,21.6,316.6,21.3,316.6,21.2z"/>
<path class="st1" d="M320.1,38.4c-0.4,0.2-0.7,0.4-1.1,0.5s-0.7,0.1-1,0.1s-0.7,0-1-0.1c-0.6-0.1-1.1-0.4-1.4-0.7s-0.5-0.7-0.7-1.1
	c-0.1-0.3-0.2-0.6-0.2-0.9c0-0.3,0-0.6,0-0.8c0-0.3,0.1-0.6,0.2-0.8c0.1-0.3,0.2-0.6,0.5-1c0.2-0.4,0.6-0.7,1.1-1
	c0.7-0.5,1.6-0.8,2.7-1c0.1-0.8,0.1-1.6,0-2.5c0-0.5-0.1-0.9-0.1-1.3c-0.1-0.8-0.2-1.4-0.3-1.9c-0.1-0.3-0.1-0.5-0.1-0.8
	c-0.2-1.3-0.1-2.5,0.1-3.6c0.3-1.1,0.6-2,1.1-2.7c0.3-0.5,0.7-0.9,1.1-1.3c0.3-0.3,0.8-0.6,1.3-0.7c0.5-0.2,1-0.2,1.6,0
	c0.3,0.1,0.7,0.3,1.1,0.6c0.4,0.3,0.6,0.9,0.6,1.6c0,0.2,0,0.5-0.1,1c-0.1,0.4-0.2,0.9-0.5,1.3c-0.2,0.3-0.4,0.6-0.6,0.8
	c-0.2,0.2-0.5,0.4-0.7,0.6c-0.3,0.1-0.5,0.2-0.6,0.2c-0.2,0-0.3-0.1-0.3-0.2c-0.2-0.2-0.2-0.4-0.1-0.6c0.1-0.1,0.1-0.2,0.3-0.3
	c0.3-0.2,0.5-0.5,0.8-0.8c0.2-0.3,0.4-0.7,0.5-1.1c0.1-0.5,0.2-0.8,0.1-1.1c0-0.2-0.1-0.4-0.3-0.5c-0.1-0.1-0.2-0.1-0.3-0.1
	c-0.1,0-0.2,0-0.3,0c-0.1,0-0.2,0.1-0.3,0.1c-0.4,0.3-0.7,0.7-0.9,1.2c-0.2,0.5-0.3,1.1-0.3,1.8c0,0.7,0,1.3,0,2
	c0.1,0.7,0.1,1.2,0.2,1.7s0.2,1.2,0.3,2.1c0.1,1,0.2,2,0.3,3.1c1.3-0.6,2.3-1,2.9-1.4s1.1-0.6,1.5-0.9c0.2-0.1,0.3-0.1,0.3-0.1
	c0.1,0.1,0.1,0.2,0.1,0.3s0,0.3,0,0.6c-0.5,0.3-1,0.7-1.5,1s-1,0.6-1.5,1c-0.5,0.3-1.1,0.6-1.7,0.9c0,0.7-0.1,1.3-0.2,1.9
	s-0.2,1.2-0.4,1.7c-0.1,0.4-0.3,0.8-0.5,1.2c-0.2,0.3-0.4,0.7-0.7,1.1C320.9,37.8,320.6,38.1,320.1,38.4z M316.5,36.3
	c0,0.1,0.1,0.2,0.1,0.3c0.1,0.1,0.1,0.1,0.2,0.2c0.1,0.1,0.2,0.1,0.3,0.2c0.2,0.1,0.4,0,0.6-0.1c0.2-0.2,0.3-0.3,0.5-0.5
	c0.1-0.2,0.3-0.5,0.4-0.9c0.1-0.3,0.2-0.6,0.2-0.9c0.1-0.3,0.1-0.5,0.2-0.8s0.1-0.5,0.1-0.8c-0.6,0.1-1.1,0.3-1.5,0.6
	s-0.6,0.5-0.8,0.8c-0.2,0.3-0.4,0.6-0.4,1c0,0.1,0,0.3,0,0.5C316.5,36,316.5,36.2,316.5,36.3z"/>
<path class="st2" d="M243.2,56.5c0-0.8-0.5-1.1-1.5-1.5l-0.5-0.2c-1.2-0.5-2.1-1.2-2.1-2.4c0-1.4,1.2-2.2,2.7-2.2
	c0.8,0,1.4,0.3,2,0.6l-0.1,1.6H243l-0.3-1.8l0.8,0.4v0.6c-0.6-0.6-1-0.8-1.7-0.8c-0.9,0-1.6,0.5-1.6,1.4c0,0.8,0.5,1.2,1.4,1.5
	l0.5,0.2c1.6,0.6,2.2,1.3,2.2,2.4c0,1.4-1.2,2.3-2.8,2.3c-0.9,0-1.8-0.3-2.3-0.6l0.1-1.7h0.7l0.3,1.8l-0.8-0.3v-0.6
	c0.7,0.5,1.2,0.8,2,0.8C242.4,58,243.2,57.5,243.2,56.5z"/>
<path class="st2" d="M245.9,58.4c0-0.5,0-1.8,0-2.5v-0.6c0-0.7,0-1,0-1.5l-1-0.1v-0.4l1.8-0.7l0.2,0.1v1.6v1.6c0,0.7,0,2,0,2.5
	C246.9,58.4,245.9,58.4,245.9,58.4z M247.8,58v0.4H245V58l1.3-0.2h0.2L247.8,58z M245.6,50.5c0-0.5,0.3-0.8,0.8-0.8
	c0.4,0,0.8,0.3,0.8,0.8c0,0.4-0.3,0.8-0.8,0.8C246,51.2,245.6,50.9,245.6,50.5z"/>
<path class="st2" d="M249.6,58.4c0-0.5,0-1.8,0-2.5v-0.6c0-0.7,0-1,0-1.5l-1-0.1v-0.4l1.6-0.7l0.2,0.1l0.1,1.4v1.8c0,0.7,0,2,0,2.5
	H249.6z M251.4,58v0.4h-2.8V58l1.3-0.2h0.2L251.4,58z M254.2,54.8v1.1c0,0.8,0,2,0,2.5h-1c0-0.5,0-1.8,0-2.5v-1c0-1.1-0.3-1.5-1-1.5
	c-0.6,0-1.1,0.2-1.8,0.8h-0.3v-0.5h0.6l-0.5,0.2c0.6-0.8,1.5-1.3,2.4-1.3C253.7,52.6,254.2,53.2,254.2,54.8z M253.9,57.8l1.2,0.2
	v0.4h-2.8V58l1.3-0.2H253.9z"/>
<path class="st2" d="M256.9,55.5c0,1.5,0.8,2.3,1.9,2.3c0.7,0,1.3-0.3,1.7-0.9l0.3,0.1c-0.3,1-1.1,1.5-2.2,1.5c-1.6,0-2.7-1.2-2.7-3
	c0-1.9,1.3-3,2.7-3c1.1,0,2,0.7,2.1,1.5c-0.1,0.3-0.2,0.4-0.5,0.4c-0.4,0-0.6-0.2-0.6-0.5l-0.3-1.1l0.6,0.4
	c-0.4-0.2-0.8-0.3-1.2-0.3C257.7,53.1,256.9,54,256.9,55.5z"/>
<path class="st2" d="M266.8,54.9c0,0.3,0,0.5-0.1,0.7h-4.4V55h2.9c0.6,0,0.7-0.3,0.7-0.6c0-0.7-0.6-1.3-1.3-1.3
	c-0.8,0-1.7,0.6-1.7,2.4c0,1.5,0.8,2.3,2,2.3c0.8,0,1.2-0.3,1.7-0.9l0.3,0.2c-0.4,0.9-1.2,1.4-2.3,1.4c-1.6,0-2.7-1.1-2.7-2.9
	c0-1.8,1.2-3.1,2.7-3.1C265.8,52.6,266.8,53.4,266.8,54.9z"/>
<path class="st2" d="M275.5,58v0.4h-4.4V58l1.7-0.3h1L275.5,58z M273.6,50.6l0.2,0.1v1.7v3.5c0,0.8,0,1.7,0,2.5h-1
	c0-0.8,0-1.7,0-2.5v-4.3l-1.6,0.1v-0.5L273.6,50.6z"/>
<path class="st2" d="M279.1,54.6c0.7,0,1.2-0.3,1.7-0.9l0.2,0.1c-0.4,1-1.2,1.5-2.2,1.5c-1.3,0-2.3-0.9-2.3-2.4s1-2.5,2.5-2.5
	s2.5,1.2,2.5,3.1c0,2.3-1.2,4.3-4.3,5l-0.1-0.4c2.6-0.8,3.4-2.2,3.4-4.4c0-1.9-0.6-2.8-1.5-2.8c-0.8,0-1.5,0.6-1.5,1.8
	C277.5,54.1,278.2,54.6,279.1,54.6z"/>
<path class="st2" d="M284.5,54.5l0.5,0.2c-1,0.5-1.5,1-1.5,1.9s0.6,1.5,1.5,1.5s1.4-0.6,1.4-1.5c0-0.7-0.4-1.1-1.9-1.8
	c-1.3-0.6-1.8-1.4-1.8-2.3c0-1.2,1-2,2.2-2s2,0.8,2,1.9c0,0.6-0.4,1.4-1.7,2.1l-0.5-0.2c1-0.7,1.3-1.1,1.3-1.9
	c0-0.7-0.4-1.3-1.2-1.3c-0.7,0-1.3,0.5-1.3,1.2s0.3,1.3,1.7,1.9c1.3,0.6,2,1.2,2,2.4s-1.1,2-2.4,2c-1.4,0-2.5-0.7-2.5-2
	C282.6,55.7,283.3,55.1,284.5,54.5z"/>
<path class="st2" d="M289.3,53.9c0.6-0.2,1.1-0.3,1.7-0.3c1.5,0,2.6,0.9,2.6,2.5c0,1.5-1.1,2.6-2.8,2.6c-1.2,0-2-0.6-2.2-1.7
	c0.1-0.3,0.3-0.4,0.6-0.4c0.4,0,0.5,0.2,0.7,0.8l0.2,0.9l-0.5-0.4c0.4,0.2,0.8,0.2,1.1,0.2c1.2,0,1.8-0.8,1.8-1.9
	c0-1.2-0.7-1.9-1.9-1.9c-0.3,0-0.7,0-1.1,0.1l-0.3-0.1l0.3-3.6h3.9v1h-3.7l0.3-0.5l-0.2,3h-0.5V53.9z"/>
<line class="st3" x1="300.8" y1="52.5" x2="329.9" y2="52.5"/>
<line class="st3" x1="25.5" y1="52.5" x2="223.8" y2="52.5"/>
<path class="st1" d="M240.6,24c0,0.4,0,0.8,0,1.3c-0.1,0.4-0.2,1-0.3,1.6c-0.1,0.7-0.4,1.4-0.7,2.2c0.3,0.1,0.6,0.1,1.1,0.1
	c0.4,0,0.9,0,1.3-0.1c0.4,0,0.8-0.1,1.2-0.2s0.7-0.1,0.9-0.2c0.2-0.1,0.4-0.1,0.4,0s0,0.2,0,0.3c-0.1,0.1-0.2,0.3-0.3,0.6
	c-0.5,0.1-1,0.3-1.5,0.4s-1,0.2-1.6,0.2c-0.6,0.1-1.3,0.1-2,0c-0.6,1.1-1.3,2.1-2,2.8c-0.7,0.8-1.4,1.4-2,1.8
	c-0.1,0.1-0.5,0.3-1,0.7c-0.5,0.3-1.1,0.6-1.8,0.9c-0.2,0.1-0.5,0.1-0.7,0.2c-0.2,0.1-0.5,0.1-0.8,0.1c-0.3,0-0.6,0-0.9,0
	c-0.3-0.1-0.7-0.1-1.1-0.2c-0.4-0.1-0.7-0.3-1.1-0.5c-0.3-0.2-0.6-0.6-0.7-1c-0.1-0.5-0.2-1-0.2-1.6s0.1-1.2,0.2-1.9
	s0.3-1.4,0.6-2.1c0.2-0.5,0.3-0.9,0.5-1.3c0.2-0.4,0.3-0.7,0.5-1c0.2-0.3,0.3-0.6,0.5-0.8c-0.4-0.6-0.7-1.2-0.8-1.8
	c-0.1-0.6-0.1-1.2,0-1.8c0.1-0.6,0.3-1.1,0.6-1.6c0.3-0.5,0.6-1,1-1.3c0.6-0.6,1.2-1,1.9-1.2c0.7-0.2,1.4-0.4,2-0.4
	c0.7,0,1.5,0,2.2,0.2c0.9,0.2,1.7,0.5,2.2,0.9c0.6,0.4,1.1,0.9,1.4,1.4c0.4,0.5,0.6,1.1,0.7,1.7C240.5,22.8,240.6,23.4,240.6,24z
	 M230.6,35.7c0.2,0,0.3,0,0.5-0.1c0.2-0.1,0.3-0.2,0.5-0.3c0.1-0.1,0.3-0.2,0.4-0.3c0.8-0.7,1.6-1.5,2.3-2.4
	c0.7-0.9,1.3-1.9,1.8-2.9c-0.6-0.1-1.1-0.2-1.6-0.3c-0.5-0.1-0.9-0.2-1.2-0.4c-0.4-0.1-0.7-0.3-1-0.4c-0.3,0.5-0.6,1.1-0.9,1.7
	s-0.6,1.2-0.8,1.7c-0.2,0.6-0.4,1.1-0.6,1.6c-0.1,0.5-0.2,0.9-0.2,1.3C229.9,35.4,230.1,35.6,230.6,35.7z M233,27.6
	c0.3,0.2,0.7,0.3,1,0.4c0.3,0.1,0.7,0.3,1.2,0.4s1,0.2,1.5,0.3c0.5-1.1,0.8-2.1,1-3.2c0.2-1,0.3-2,0.2-2.8c-0.1-0.6-0.2-1.2-0.5-1.6
	c-0.3-0.4-0.5-0.8-0.8-1.1c-0.3-0.3-0.6-0.5-0.9-0.6c-0.3-0.2-0.5-0.3-0.7-0.3c-0.4-0.1-0.8-0.2-1.1-0.1c-0.4,0-0.7,0-0.9,0.1
	c-0.3,0.1-0.6,0.2-0.9,0.3c-0.3,0.2-0.7,0.4-0.9,0.8c-0.3,0.4-0.5,0.8-0.7,1.3c-0.2,0.5-0.3,1-0.3,1.6s0,1.1,0.2,1.6
	c0.4-0.5,0.8-1,1.1-1.3c0.3-0.4,0.6-0.7,1-0.9c0.3-0.3,0.5-0.5,0.9-0.6c0.3-0.1,0.5-0.3,0.9-0.4c0.3-0.1,0.6-0.1,0.9,0
	c0.3,0.1,0.6,0.4,0.6,0.7c0.1,0.3,0.1,0.7,0,1.1s-0.3,0.9-0.6,1.4c-0.3,0.5-0.6,1-0.9,1.4c-0.1,0.2-0.3,0.4-0.5,0.7
	C233.5,27,233.2,27.3,233,27.6z"/>
</svg>
