<?xml version="1.0" encoding="utf-8"?>
<!-- Generator: Adobe Illustrator 22.0.1, SVG Export Plug-In . SVG Version: 6.00 Build 0)  -->
<svg version="1.1" id="Layer_1" xmlns="http://www.w3.org/2000/svg" xmlns:xlink="http://www.w3.org/1999/xlink" x="0px" y="0px"
	 viewBox="0 0 352.2 66.2" style="enable-background:new 0 0 352.2 66.2;" xml:space="preserve">
<style type="text/css">
	.st0{fill:#DA9089;}
	.st1{fill:#231F20;}
	.st2{fill:#6A4025;}
	.st3{fill:none;stroke:#FDFEFE;stroke-miterlimit:10;}
</style>
<rect class="st0" width="352.2" height="66.2"/>
<g>
	<g>
		<path class="st1" d="M45.2,47.6c-0.9,0-1.8,0-2.6-0.2s-1.5-0.3-2-0.4c-0.7-0.2-1.3-0.4-1.8-0.6c-2-1-3.6-2.3-4.6-4.1
			c-0.7-1.1-1.1-2.3-1.4-3.6c-0.3-1.3-0.4-2.8-0.2-4.3c0.1-1.8,0.5-3.7,1.1-5.7c0.6-2,1.5-4.2,2.5-6.5c2.4-5,5.2-9.1,8.5-12.2
			c-0.4-0.2-1-0.5-1.7-0.9S41.5,8.4,40.6,8c-0.9-0.4-1.8-0.8-2.9-1.2c-1-0.4-2.1-0.8-3.2-1.1c-2.2-0.7-4.3-1.1-6.3-1.2h-0.7
			c-0.2,0-0.5,0-0.7,0c-0.2,0-0.4,0-0.6,0.1C25,4.7,24,5,23.2,5.5c-0.8,0.5-1.5,1.1-2,1.8s-1,1.3-1.4,2c-0.4,0.7-0.7,1.2-1.1,1.5
			c-0.5,0.5-0.9,0.8-1.2,0.9c-0.4,0.1-0.6,0.1-0.9,0c-0.3-0.1-0.6-0.3-0.8-0.6c-0.4-0.6-0.5-1.2-0.2-1.8c0.3-0.6,0.6-1.2,1.1-1.7
			C17.3,7,18,6.4,18.9,5.8c0.3-0.2,0.6-0.4,1-0.6c0.3-0.2,0.7-0.4,1.2-0.6c0.5-0.2,1-0.4,1.6-0.7c0.3-0.1,0.6-0.1,0.9-0.3
			c0.3-0.1,0.6-0.1,0.9-0.2s0.7-0.2,1-0.2c1.3-0.1,2.7-0.1,4.2,0c1.5,0.1,3.1,0.5,4.8,0.9c1.7,0.4,3.5,1,5.5,1.9
			c2,0.8,4,1.7,6.2,2.5c0.6-0.5,1.2-1,1.9-1.4c0.6-0.4,1.2-0.8,1.9-1.2c0.7-0.4,1.4-0.8,2.2-1.1c1.1-0.4,2-0.7,2.9-0.9
			c0.9-0.2,1.7-0.4,2.4-0.5c0.1,0,0.4-0.1,1-0.1s1.3,0,2,0c1.4,0.2,2.4,0.6,2.9,1.2c0.5,0.6,0.8,1.2,0.9,1.8c0,0.1,0,0.3,0,0.7
			c0,0.4-0.2,1-0.5,1.6c-0.3,0.6-0.8,1.2-1.5,1.9c-0.7,0.7-1.9,1.3-3.4,1.8c-0.8,0.3-1.7,0.5-2.8,0.6c-1,0.1-2.1,0.1-3.2,0
			c-0.9-0.1-1.8-0.2-2.7-0.5c-0.9-0.2-1.8-0.5-2.7-0.9c-2,2.1-4.2,5-6.5,8.7c-1.7,2.8-3,5.4-3.8,7.8c-0.8,2.4-1.3,4.6-1.5,6.5
			c-0.2,1.9,0,3.7,0.4,5.1c0.4,1.5,1.1,2.7,1.9,3.7c0.9,1,1.9,1.7,3.1,2.2c1.2,0.5,2.5,0.7,3.8,0.6c1-0.1,2-0.2,2.9-0.4
			c0.9-0.2,1.7-0.4,2.4-0.7c0.8-0.3,1.5-0.6,2.2-0.9c1.1-0.6,2.3-1.3,3.6-2.3s2.7-2.2,4.2-3.8c1.5-1.6,3-3.4,4.5-5.7
			c1.6-2.2,3.1-4.9,4.7-7.9c0.3-0.4,0.7-0.5,1-0.4c0.2,0.1,0.3,0.2,0.4,0.4c0,0.2,0,0.4-0.1,0.6c-1.5,2.8-3,5.3-4.5,7.6
			c-1.6,2.3-3.2,4.4-4.9,6.2c-1.4,1.5-2.8,2.7-4.2,3.8c-1.4,1.1-2.8,2-4.3,2.8c-1.9,0.9-3.5,1.5-4.8,1.7
			C46.9,47.5,45.9,47.6,45.2,47.6z M61,9.7c0.5-0.3,1-0.7,1.2-1c0.3-0.4,0.5-0.7,0.6-1C63,7.3,63,6.9,63,6.5
			c-0.2-0.9-0.8-1.4-1.8-1.7c-1-0.2-2.1-0.1-3.3,0.1c-1,0.2-2.2,0.7-3.6,1.4c-1.4,0.7-3,1.8-4.6,3.2c1,0.3,2,0.6,3,0.8
			c1,0.2,2,0.3,3,0.4c1.3,0.1,2.4,0,3.3-0.3S60.5,10,61,9.7z"/>
		<path class="st1" d="M79.9,24c0,0.4,0,0.8,0,1.3c-0.1,0.4-0.2,1-0.3,1.6c-0.1,0.7-0.4,1.4-0.7,2.2c0.3,0.1,0.6,0.1,1.1,0.1
			c0.4,0,0.9,0,1.3-0.1c0.4,0,0.8-0.1,1.2-0.2c0.4-0.1,0.7-0.1,0.9-0.2c0.2-0.1,0.4-0.1,0.4,0c0,0.1,0,0.2,0,0.3
			c-0.1,0.1-0.2,0.3-0.3,0.6c-0.5,0.1-1,0.3-1.5,0.4c-0.5,0.1-1,0.2-1.6,0.2c-0.6,0.1-1.3,0.1-2,0c-0.6,1.1-1.3,2.1-2,2.8
			c-0.7,0.8-1.4,1.4-2,1.8c-0.1,0.1-0.5,0.3-1,0.7c-0.5,0.3-1.1,0.6-1.8,0.9c-0.2,0.1-0.5,0.1-0.7,0.2c-0.2,0.1-0.5,0.1-0.8,0.1
			c-0.3,0-0.6,0-0.9,0c-0.3-0.1-0.7-0.1-1.1-0.2s-0.7-0.3-1.1-0.5c-0.3-0.2-0.6-0.6-0.7-1c-0.1-0.5-0.2-1-0.2-1.6s0.1-1.2,0.2-1.9
			c0.1-0.7,0.3-1.4,0.6-2.1c0.2-0.5,0.3-0.9,0.5-1.3c0.2-0.4,0.3-0.7,0.5-1c0.2-0.3,0.3-0.6,0.5-0.8c-0.4-0.6-0.7-1.2-0.8-1.8
			c-0.1-0.6-0.1-1.2,0-1.8c0.1-0.6,0.3-1.1,0.6-1.6c0.3-0.5,0.6-1,1-1.3c0.6-0.6,1.2-1,1.9-1.2c0.7-0.2,1.4-0.4,2-0.4
			c0.7,0,1.5,0,2.2,0.2c0.9,0.2,1.7,0.5,2.2,0.9c0.6,0.4,1.1,0.9,1.4,1.4c0.4,0.5,0.6,1.1,0.7,1.7C79.8,22.8,79.9,23.4,79.9,24z
			 M69.9,35.7c0.2,0,0.3,0,0.5-0.1c0.2-0.1,0.3-0.2,0.5-0.3c0.1-0.1,0.3-0.2,0.4-0.3c0.8-0.7,1.6-1.5,2.3-2.4
			c0.7-0.9,1.3-1.9,1.8-2.9c-0.6-0.1-1.1-0.2-1.6-0.3c-0.5-0.1-0.9-0.2-1.2-0.4c-0.4-0.1-0.7-0.3-1-0.4c-0.3,0.5-0.6,1.1-0.9,1.7
			S70,31.5,69.8,32c-0.2,0.6-0.4,1.1-0.6,1.6c-0.1,0.5-0.2,0.9-0.2,1.3C69.1,35.4,69.4,35.6,69.9,35.7z M72.2,27.6
			c0.3,0.2,0.7,0.3,1,0.4c0.3,0.1,0.7,0.3,1.2,0.4c0.5,0.1,1,0.2,1.5,0.3c0.5-1.1,0.8-2.1,1-3.2c0.2-1,0.3-2,0.2-2.8
			c-0.1-0.6-0.2-1.2-0.5-1.6c-0.3-0.4-0.5-0.8-0.8-1.1s-0.6-0.5-0.9-0.6c-0.3-0.2-0.5-0.3-0.7-0.3c-0.4-0.1-0.8-0.2-1.1-0.1
			c-0.4,0-0.7,0-0.9,0.1c-0.3,0.1-0.6,0.2-0.9,0.3c-0.3,0.2-0.7,0.4-0.9,0.8c-0.3,0.4-0.5,0.8-0.7,1.3c-0.2,0.5-0.3,1-0.3,1.6
			c0,0.6,0,1.1,0.2,1.6c0.4-0.5,0.8-1,1.1-1.3c0.3-0.4,0.6-0.7,1-0.9c0.3-0.3,0.5-0.5,0.9-0.6c0.3-0.1,0.5-0.3,0.9-0.4
			c0.3-0.1,0.6-0.1,0.9,0c0.3,0.1,0.6,0.4,0.6,0.7c0.1,0.3,0.1,0.7,0,1.1c-0.1,0.4-0.3,0.9-0.6,1.4c-0.3,0.5-0.6,1-0.9,1.4
			c-0.1,0.2-0.3,0.4-0.5,0.7C72.7,27,72.4,27.3,72.2,27.6z"/>
		<path class="st1" d="M83.2,32.2c-0.1,0.5,0,0.9,0.1,1.4s0.4,0.8,0.9,1c0.1,0.1,0.2,0.1,0.4,0.1c0.1,0,0.3,0.1,0.4,0.1
			c0.9,0.1,1.7,0.1,2.5-0.2c0.7-0.2,1.4-0.5,1.9-0.9c0.5-0.3,0.8-0.5,1.2-0.8c0.3-0.3,0.6-0.5,0.8-0.7c0.5-0.5,1-1,1.4-1.5
			c0.5-0.5,0.9-1,1.2-1.5c0.4-0.5,0.8-1,1.2-1.6c0.4-0.6,0.8-1.1,1.2-1.7c0.4-0.6,0.7-1,1-1.5c0.1-0.1,0.1-0.2,0.2-0.3
			c0.1-0.1,0.3-0.2,0.4-0.2c0.1,0.1,0.3,0.2,0.3,0.3c0.1,0.1,0.1,0.4,0,0.6c-0.2,0.5-0.5,0.9-0.8,1.4c-0.2,0.4-0.5,0.8-0.8,1.3
			c-0.3,0.5-0.6,1-0.9,1.4c-0.1,0.2-0.2,0.4-0.4,0.6c-0.1,0.2-0.3,0.4-0.5,0.6c-0.2,0.2-0.4,0.4-0.6,0.7c-0.2,0.3-0.5,0.6-1,1.2
			s-1.1,1.1-1.8,1.6c-0.7,0.6-1.5,1.1-2.4,1.6c-0.9,0.5-1.9,0.8-2.9,1c-1.1,0.2-2,0.2-2.7,0.1c-0.7-0.1-1.3-0.3-1.7-0.5
			c-0.5-0.3-0.9-0.6-1.2-1c-0.4-0.6-0.6-1.3-0.7-2.3c-0.1-1,0.1-2.2,0.5-3.7c0.3-1.1,0.6-2.1,1.1-3c0.4-0.9,0.8-1.7,1.2-2.3
			c0.5-0.7,1-1.4,1.5-1.9c0.5-0.6,1-1.1,1.5-1.5s1-0.7,1.4-0.9c0.5-0.3,1-0.5,1.4-0.6c0.3-0.1,0.6-0.2,1-0.2c0.3,0,0.7,0,1,0
			c0.4,0.1,0.8,0.2,1.2,0.4c0.1,0.1,0.2,0.1,0.3,0.2c0.2,0.1,0.4,0.3,0.7,0.6c0.3,0.3,0.5,0.7,0.6,1.1c0.1,0.4,0.3,0.8,0.3,1.4
			c0.1,0.5,0.1,1.1,0,1.8c0,0.1-0.1,0.4-0.1,0.6c-0.1,0.3-0.2,0.6-0.3,0.8s-0.3,0.5-0.5,0.7c-0.2,0.2-0.4,0.3-0.7,0.3
			c-0.4,0-0.6-0.1-0.8-0.2c-0.2-0.1-0.3-0.3-0.3-0.6c0-0.3,0-0.6,0.1-1c0.1-0.4,0.2-0.8,0.4-1.2c0.2-0.4,0.3-0.7,0.4-1.1
			c0.1-0.4,0.1-0.7,0-0.9c-0.1-0.2-0.2-0.3-0.4-0.3c-0.6-0.3-1.4,0-2.3,0.7c-0.9,0.8-1.9,1.9-2.9,3.3c-0.5,0.6-0.9,1.3-1.3,2.1
			c-0.4,0.8-0.8,1.6-1.1,2.4v0c-0.1,0.2-0.2,0.4-0.3,0.7c-0.1,0.2-0.1,0.5-0.2,0.8C83.3,31.6,83.2,31.9,83.2,32.2z"/>
		<path class="st1" d="M108.3,24c0,0.4,0,0.8,0,1.3c-0.1,0.4-0.2,1-0.3,1.6c-0.1,0.7-0.4,1.4-0.7,2.2c0.3,0.1,0.6,0.1,1.1,0.1
			c0.4,0,0.9,0,1.3-0.1c0.4,0,0.8-0.1,1.2-0.2c0.4-0.1,0.7-0.1,0.9-0.2c0.2-0.1,0.4-0.1,0.4,0c0,0.1,0,0.2,0,0.3
			c-0.1,0.1-0.2,0.3-0.3,0.6c-0.5,0.1-1,0.3-1.5,0.4c-0.5,0.1-1,0.2-1.6,0.2c-0.6,0.1-1.3,0.1-2,0c-0.6,1.1-1.3,2.1-2,2.8
			c-0.7,0.8-1.4,1.4-2,1.8c-0.1,0.1-0.5,0.3-1,0.7c-0.5,0.3-1.1,0.6-1.8,0.9c-0.2,0.1-0.5,0.1-0.7,0.2c-0.2,0.1-0.5,0.1-0.8,0.1
			c-0.3,0-0.6,0-0.9,0c-0.3-0.1-0.7-0.1-1.1-0.2s-0.7-0.3-1.1-0.5c-0.3-0.2-0.6-0.6-0.7-1c-0.1-0.5-0.2-1-0.2-1.6s0.1-1.2,0.2-1.9
			c0.1-0.7,0.3-1.4,0.6-2.1c0.2-0.5,0.3-0.9,0.5-1.3c0.2-0.4,0.3-0.7,0.5-1c0.2-0.3,0.3-0.6,0.5-0.8c-0.4-0.6-0.7-1.2-0.8-1.8
			c-0.1-0.6-0.1-1.2,0-1.8c0.1-0.6,0.3-1.1,0.6-1.6c0.3-0.5,0.6-1,1-1.3c0.6-0.6,1.2-1,1.9-1.2c0.7-0.2,1.4-0.4,2-0.4
			c0.7,0,1.5,0,2.2,0.2c0.9,0.2,1.7,0.5,2.2,0.9c0.6,0.4,1.1,0.9,1.4,1.4c0.4,0.5,0.6,1.1,0.7,1.7C108.2,22.8,108.3,23.4,108.3,24z
			 M98.3,35.7c0.2,0,0.3,0,0.5-0.1c0.2-0.1,0.3-0.2,0.5-0.3c0.1-0.1,0.3-0.2,0.4-0.3c0.8-0.7,1.6-1.5,2.3-2.4
			c0.7-0.9,1.3-1.9,1.8-2.9c-0.6-0.1-1.1-0.2-1.6-0.3c-0.5-0.1-0.9-0.2-1.2-0.4c-0.4-0.1-0.7-0.3-1-0.4c-0.3,0.5-0.6,1.1-0.9,1.7
			s-0.6,1.2-0.8,1.7c-0.2,0.6-0.4,1.1-0.6,1.6c-0.1,0.5-0.2,0.9-0.2,1.3C97.5,35.4,97.8,35.6,98.3,35.7z M100.6,27.6
			c0.3,0.2,0.7,0.3,1,0.4c0.3,0.1,0.7,0.3,1.2,0.4c0.5,0.1,1,0.2,1.5,0.3c0.5-1.1,0.8-2.1,1-3.2c0.2-1,0.3-2,0.2-2.8
			c-0.1-0.6-0.2-1.2-0.5-1.6c-0.3-0.4-0.5-0.8-0.8-1.1s-0.6-0.5-0.9-0.6c-0.3-0.2-0.5-0.3-0.7-0.3c-0.4-0.1-0.8-0.2-1.1-0.1
			c-0.4,0-0.7,0-0.9,0.1c-0.3,0.1-0.6,0.2-0.9,0.3c-0.3,0.2-0.7,0.4-0.9,0.8c-0.3,0.4-0.5,0.8-0.7,1.3c-0.2,0.5-0.3,1-0.3,1.6
			c0,0.6,0,1.1,0.2,1.6c0.4-0.5,0.8-1,1.1-1.3c0.3-0.4,0.6-0.7,1-0.9c0.3-0.3,0.5-0.5,0.9-0.6c0.3-0.1,0.5-0.3,0.9-0.4
			c0.3-0.1,0.6-0.1,0.9,0c0.3,0.1,0.6,0.4,0.6,0.7c0.1,0.3,0.1,0.7,0,1.1c-0.1,0.4-0.3,0.9-0.6,1.4c-0.3,0.5-0.6,1-0.9,1.4
			c-0.1,0.2-0.3,0.4-0.5,0.7C101.1,27,100.9,27.3,100.6,27.6z"/>
		<path class="st1" d="M117,15.2c0,1.3-0.4,2.5-1.3,3.5c-0.9,1-1.9,1.6-3.1,1.6c-0.3,0-0.5-0.1-0.7-0.2s-0.2-0.3-0.2-0.7
			c0-0.4,0.1-0.7,0.3-1.1c0.6,0.2,1.2,0.2,1.7,0c0.5-0.2,0.8-0.8,0.9-1.8c-0.5-0.1-0.9-0.3-1.1-0.6c-0.2-0.3-0.3-0.6-0.3-1
			c0-0.5,0.2-1,0.6-1.3c0.4-0.3,0.9-0.5,1.5-0.5c0.6,0,1.1,0.2,1.4,0.5C116.8,14,117,14.5,117,15.2z"/>
		<path class="st1" d="M120.7,38.4c-0.4,0.2-0.7,0.4-1.1,0.5s-0.7,0.1-1,0.1c-0.3,0-0.7,0-1-0.1c-0.6-0.1-1.1-0.4-1.4-0.7
			c-0.3-0.3-0.5-0.7-0.7-1.1c-0.1-0.3-0.2-0.6-0.2-0.9c0-0.3,0-0.6,0-0.8c0-0.3,0.1-0.6,0.2-0.8c0.1-0.3,0.2-0.6,0.5-1
			c0.2-0.4,0.6-0.7,1.1-1c0.7-0.5,1.6-0.8,2.7-1c0.1-0.8,0.1-1.6,0-2.5c0-0.5-0.1-0.9-0.1-1.3c-0.1-0.8-0.2-1.4-0.3-1.9
			c-0.1-0.3-0.1-0.5-0.1-0.8c-0.2-1.3-0.1-2.5,0.1-3.6c0.3-1.1,0.6-2,1.1-2.7c0.3-0.5,0.7-0.9,1.1-1.3c0.3-0.3,0.8-0.6,1.3-0.7
			c0.5-0.2,1-0.2,1.6,0c0.3,0.1,0.7,0.3,1.1,0.6c0.4,0.3,0.6,0.9,0.6,1.6c0,0.2,0,0.5-0.1,1c-0.1,0.4-0.2,0.9-0.5,1.3
			c-0.2,0.3-0.4,0.6-0.6,0.8c-0.2,0.2-0.5,0.4-0.7,0.6c-0.3,0.1-0.5,0.2-0.6,0.2c-0.2,0-0.3-0.1-0.3-0.2c-0.2-0.2-0.2-0.4-0.1-0.6
			c0.1-0.1,0.1-0.2,0.3-0.3c0.3-0.2,0.5-0.5,0.8-0.8c0.2-0.3,0.4-0.7,0.5-1.1c0.1-0.5,0.2-0.8,0.1-1.1c0-0.2-0.1-0.4-0.3-0.5
			c-0.1-0.1-0.2-0.1-0.3-0.1c-0.1,0-0.2,0-0.3,0c-0.1,0-0.2,0.1-0.3,0.1c-0.4,0.3-0.7,0.7-0.9,1.2c-0.2,0.5-0.3,1.1-0.3,1.8
			c0,0.7,0,1.3,0,2c0.1,0.7,0.1,1.2,0.2,1.7c0.1,0.5,0.2,1.2,0.3,2.1c0.1,1,0.2,2,0.3,3.1c1.3-0.6,2.3-1,2.9-1.4
			c0.6-0.4,1.1-0.6,1.5-0.9c0.2-0.1,0.3-0.1,0.3-0.1c0.1,0.1,0.1,0.2,0.1,0.3s0,0.3,0,0.6c-0.5,0.3-1,0.7-1.5,1
			c-0.5,0.3-1,0.6-1.5,1c-0.5,0.3-1.1,0.6-1.7,0.9c0,0.7-0.1,1.3-0.2,1.9c-0.1,0.6-0.2,1.2-0.4,1.7c-0.1,0.4-0.3,0.8-0.5,1.2
			c-0.2,0.3-0.4,0.7-0.7,1.1C121.4,37.8,121.1,38.1,120.7,38.4z M117.1,36.3c0,0.1,0.1,0.2,0.1,0.3c0.1,0.1,0.1,0.1,0.2,0.2
			c0.1,0.1,0.2,0.1,0.3,0.2c0.2,0.1,0.4,0,0.6-0.1c0.2-0.2,0.3-0.3,0.5-0.5c0.1-0.2,0.3-0.5,0.4-0.9c0.1-0.3,0.2-0.6,0.2-0.9
			c0.1-0.3,0.1-0.5,0.2-0.8c0.1-0.3,0.1-0.5,0.1-0.8c-0.6,0.1-1.1,0.3-1.5,0.6c-0.4,0.3-0.6,0.5-0.8,0.8c-0.2,0.3-0.4,0.6-0.4,1
			c0,0.1,0,0.3,0,0.5C117,36,117,36.2,117.1,36.3z"/>
		<path class="st1" d="M176.8,47.6c-0.9,0-1.8,0-2.6-0.2s-1.5-0.3-2-0.4c-0.7-0.2-1.3-0.4-1.8-0.6c-2-1-3.6-2.3-4.6-4.1
			c-0.7-1.1-1.1-2.3-1.4-3.6c-0.3-1.3-0.4-2.8-0.2-4.3c0.1-1.8,0.5-3.7,1.1-5.7c0.6-2,1.5-4.2,2.5-6.5c2.4-5,5.2-9.1,8.5-12.2
			c-0.4-0.2-1-0.5-1.7-0.9S173,8.4,172.2,8c-0.9-0.4-1.8-0.8-2.9-1.2c-1-0.4-2.1-0.8-3.2-1.1c-2.2-0.7-4.3-1.1-6.3-1.2h-0.7
			c-0.2,0-0.5,0-0.7,0c-0.2,0-0.4,0-0.6,0.1c-1.2,0.1-2.1,0.4-2.9,0.9c-0.8,0.5-1.5,1.1-2,1.8s-1,1.3-1.4,2
			c-0.4,0.7-0.7,1.2-1.1,1.5c-0.5,0.5-0.9,0.8-1.2,0.9c-0.4,0.1-0.6,0.1-0.9,0c-0.3-0.1-0.6-0.3-0.8-0.6c-0.4-0.6-0.5-1.2-0.2-1.8
			c0.3-0.6,0.6-1.2,1.1-1.7c0.5-0.6,1.2-1.2,2.1-1.7c0.3-0.2,0.6-0.4,1-0.6c0.3-0.2,0.7-0.4,1.2-0.6c0.5-0.2,1-0.4,1.6-0.7
			c0.3-0.1,0.6-0.1,0.9-0.3c0.3-0.1,0.6-0.1,0.9-0.2s0.7-0.2,1-0.2c1.3-0.1,2.7-0.1,4.2,0c1.5,0.1,3.1,0.5,4.8,0.9
			c1.7,0.4,3.5,1,5.5,1.9c2,0.8,4,1.7,6.2,2.5c0.6-0.5,1.2-1,1.9-1.4c0.6-0.4,1.2-0.8,1.9-1.2c0.7-0.4,1.4-0.8,2.2-1.1
			c1.1-0.4,2-0.7,2.9-0.9c0.9-0.2,1.7-0.4,2.4-0.5c0.1,0,0.4-0.1,1-0.1s1.3,0,2,0c1.4,0.2,2.4,0.6,2.9,1.2c0.5,0.6,0.8,1.2,0.9,1.8
			c0,0.1,0,0.3,0,0.7c0,0.4-0.2,1-0.5,1.6c-0.3,0.6-0.8,1.2-1.5,1.9c-0.7,0.7-1.9,1.3-3.4,1.8c-0.8,0.3-1.7,0.5-2.8,0.6
			c-1,0.1-2.1,0.1-3.2,0c-0.9-0.1-1.8-0.2-2.7-0.5c-0.9-0.2-1.8-0.5-2.7-0.9c-2,2.1-4.2,5-6.5,8.7c-1.7,2.8-3,5.4-3.8,7.8
			c-0.8,2.4-1.3,4.6-1.5,6.5c-0.2,1.9,0,3.7,0.4,5.1c0.4,1.5,1.1,2.7,1.9,3.7c0.9,1,1.9,1.7,3.1,2.2c1.2,0.5,2.5,0.7,3.8,0.6
			c1-0.1,2-0.2,2.9-0.4c0.9-0.2,1.7-0.4,2.4-0.7c0.8-0.3,1.5-0.6,2.2-0.9c1.1-0.6,2.3-1.3,3.6-2.3s2.7-2.2,4.2-3.8
			c1.5-1.6,3-3.4,4.5-5.7c1.6-2.2,3.1-4.9,4.7-7.9c0.3-0.4,0.7-0.5,1-0.4c0.2,0.1,0.3,0.2,0.4,0.4c0,0.2,0,0.4-0.1,0.6
			c-1.5,2.8-3,5.3-4.5,7.6c-1.6,2.3-3.2,4.4-4.9,6.2c-1.4,1.5-2.8,2.7-4.2,3.8c-1.4,1.1-2.8,2-4.3,2.8c-1.9,0.9-3.5,1.5-4.8,1.7
			C178.4,47.5,177.4,47.6,176.8,47.6z M192.6,9.7c0.5-0.3,1-0.7,1.2-1c0.3-0.4,0.5-0.7,0.6-1c0.1-0.4,0.2-0.8,0.2-1.2
			c-0.2-0.9-0.8-1.4-1.8-1.7c-1-0.2-2.1-0.1-3.3,0.1c-1,0.2-2.2,0.7-3.6,1.4c-1.4,0.7-3,1.8-4.6,3.2c1,0.3,2,0.6,3,0.8
			c1,0.2,2,0.3,3,0.4c1.3,0.1,2.4,0,3.3-0.3S192,10,192.6,9.7z"/>
		<path class="st1" d="M201.4,33.6c0,0.1,0,0.3,0,0.4c0,0.1,0,0.2,0,0.3c0,0.1,0,0.2,0,0.2c0,0.2,0,0.4-0.1,0.6
			c-0.1,0.2-0.2,0.3-0.4,0.3c-0.1,0.1-0.3,0.1-0.4,0.1c-0.1,0-0.2,0-0.4,0c-0.2,0-0.3-0.1-0.4-0.2c-0.3-0.2-0.6-0.5-0.8-0.8
			c-0.2-0.5-0.4-1-0.4-1.6c0-0.6,0-1.2,0-1.7c0.1-0.6,0.1-1.2,0.3-1.8c0.2-0.9,0.4-1.8,0.7-2.7c0.3-0.9,0.6-1.8,0.9-2.6
			s0.6-1.6,0.9-2.3s0.6-1.3,0.8-1.8c0.5-1.1,1-2.1,1.5-3.1c0.5-1,1.1-2,1.7-3c-0.6,0-1.2,0-1.8,0c-0.5,0-1.1,0-1.7,0
			c-0.6,0-1.2,0-1.7-0.1c-1.2,0-2.2,0.1-3.1,0.4c-0.9,0.3-1.7,0.7-2.4,1.1c-0.7,0.4-1.3,0.9-1.8,1.3c-0.5,0.4-1,0.8-1.4,1
			c-0.6,0.3-1,0.4-1.4,0.4c-0.3,0-0.6-0.1-0.9-0.3c-0.3-0.2-0.4-0.5-0.6-0.9c-0.2-0.7-0.1-1.3,0.3-1.8s0.9-0.9,1.5-1.2
			c0.7-0.3,1.5-0.6,2.5-0.8c0.5-0.1,1.1-0.2,1.8-0.2c0.7-0.1,1.5-0.1,2.5-0.1c1,0,2.3,0,3.8,0.1c0.7,0,1.4,0,2,0
			c0.6,0,1.2,0,1.6-0.1c0.5,0,1-0.1,1.5-0.1c0.8-1.1,1.6-2.2,2.3-3.2c0.8-1,1.6-1.9,2.3-2.7s1.5-1.5,2.2-2c0.7-0.5,1.3-0.9,1.9-1.1
			c0.3-0.1,0.6-0.2,0.9-0.2c0.3,0,0.5,0,0.8,0c0.3,0,0.6,0.1,0.8,0.3c0.3,0.2,0.6,0.6,0.7,1c0.1,0.4,0.2,0.9,0.2,1.5
			c0,0.6-0.2,1.3-0.6,2.2c-0.4,0.9-1,1.7-1.7,2.5c-0.7,0.7-1.5,1.3-2.5,1.8c-1,0.6-2.3,0.9-3.9,1c-0.4,0.7-0.8,1.4-1.2,2.1
			c-0.3,0.6-0.7,1.2-1,1.9c-0.4,0.7-0.7,1.3-1,1.9c-0.4,0.8-0.8,1.6-1.2,2.5c-0.4,0.8-0.8,1.6-1.2,2.6c-0.4,1-0.8,1.9-1.2,2.9
			c0.3-0.4,0.5-0.8,0.8-1.2c0.3-0.4,0.6-0.8,1-1.2c0.5-0.7,1.1-1.3,1.8-2c0.6-0.7,1.3-1.2,2-1.8c0.7-0.5,1.4-1,2-1.4
			c0.7-0.4,1.4-0.6,2-0.8c0.3-0.1,0.6-0.1,1,0c0.3,0.1,0.6,0.2,0.9,0.4c0.5,0.4,0.7,1,0.6,1.6c-0.1,0.6-0.2,1.2-0.4,1.6
			c-0.1,0.2-0.3,0.5-0.4,0.7c-0.1,0.2-0.3,0.5-0.4,0.7c-0.3,0.4-0.6,1-1.1,1.9s-0.9,1.7-1.4,2.6c-0.4,0.9-0.8,1.8-1.1,2.7
			c-0.3,0.9-0.4,1.6-0.4,2.2c0,0.2,0.1,0.4,0.2,0.6c0.1,0.2,0.3,0.2,0.7,0c0.3-0.2,0.7-0.5,1.1-0.9c0.4-0.4,0.7-0.8,1.1-1.2
			c0.4-0.5,0.8-1,1.2-1.6c0.5-0.6,0.9-1.3,1.3-1.9c0.4-0.7,0.8-1.3,1.1-1.8c0.3-0.6,0.6-1.1,0.9-1.5c0.3-0.4,0.5-0.8,0.7-1
			c0,0,0.1,0,0.1,0c0.1,0,0.3,0,0.4,0.1c0.1,0.1,0.2,0.2,0.1,0.3c0,0.1-0.1,0.2-0.2,0.5c-0.1,0.3-0.3,0.7-0.5,1.1
			c-0.6,1.2-1.2,2.4-1.9,3.5c-0.6,1-1.3,1.9-2.1,2.9c-0.8,1-1.7,1.8-2.6,2.3c-0.1,0-0.2,0.1-0.4,0.2c-0.2,0.1-0.5,0.2-0.9,0.3
			s-0.8,0-1.2,0c-0.4-0.1-0.9-0.3-1.3-0.6c-0.3-0.3-0.6-0.7-0.7-1.2c-0.1-0.5-0.1-1.2-0.1-1.9c0-0.7,0.2-1.5,0.3-2.2
			c0.2-0.8,0.4-1.5,0.7-2.3c0.2-0.5,0.4-1,0.7-1.6c0.3-0.6,0.6-1.1,0.8-1.6c0.3-0.6,0.6-1.1,0.9-1.7c-0.3,0.1-0.8,0.5-1.7,1.1
			c-0.8,0.6-1.7,1.5-2.7,2.5c-1,1-1.9,2.2-2.8,3.6C202.3,30.7,201.7,32.1,201.4,33.6z M216.9,5.6c-0.1-0.1-0.2-0.1-0.5-0.1
			c-0.2,0-0.6,0.1-1.1,0.5c-0.5,0.3-1.1,1-1.8,1.8c-0.8,0.9-1.7,2.2-2.8,3.9c0.7-0.1,1.4-0.3,2-0.5c0.6-0.3,1.1-0.5,1.5-0.8
			c0.5-0.3,0.9-0.6,1.2-1c0.6-0.7,1.1-1.3,1.3-1.8c0.2-0.5,0.4-0.9,0.4-1.2C217.1,6.1,217,5.8,216.9,5.6z"/>
		<path class="st1" d="M228.8,24c0,0.4,0,0.8,0,1.3c-0.1,0.4-0.2,1-0.3,1.6c-0.1,0.7-0.4,1.4-0.7,2.2c0.3,0.1,0.6,0.1,1.1,0.1
			c0.4,0,0.9,0,1.3-0.1c0.4,0,0.8-0.1,1.2-0.2c0.4-0.1,0.7-0.1,0.9-0.2c0.2-0.1,0.4-0.1,0.4,0c0,0.1,0,0.2,0,0.3
			c-0.1,0.1-0.2,0.3-0.3,0.6c-0.5,0.1-1,0.3-1.5,0.4c-0.5,0.1-1,0.2-1.6,0.2c-0.6,0.1-1.3,0.1-2,0c-0.6,1.1-1.3,2.1-2,2.8
			c-0.7,0.8-1.4,1.4-2,1.8c-0.1,0.1-0.5,0.3-1,0.7c-0.5,0.3-1.1,0.6-1.8,0.9c-0.2,0.1-0.5,0.1-0.7,0.2c-0.2,0.1-0.5,0.1-0.8,0.1
			c-0.3,0-0.6,0-0.9,0c-0.3-0.1-0.7-0.1-1.1-0.2s-0.7-0.3-1.1-0.5c-0.3-0.2-0.6-0.6-0.7-1c-0.1-0.5-0.2-1-0.2-1.6s0.1-1.2,0.2-1.9
			c0.1-0.7,0.3-1.4,0.6-2.1c0.2-0.5,0.3-0.9,0.5-1.3c0.2-0.4,0.3-0.7,0.5-1c0.2-0.3,0.3-0.6,0.5-0.8c-0.4-0.6-0.7-1.2-0.8-1.8
			c-0.1-0.6-0.1-1.2,0-1.8c0.1-0.6,0.3-1.1,0.6-1.6c0.3-0.5,0.6-1,1-1.3c0.6-0.6,1.2-1,1.9-1.2c0.7-0.2,1.4-0.4,2-0.4
			c0.7,0,1.5,0,2.2,0.2c0.9,0.2,1.7,0.5,2.2,0.9c0.6,0.4,1.1,0.9,1.4,1.4c0.4,0.5,0.6,1.1,0.7,1.7C228.7,22.8,228.8,23.4,228.8,24z
			 M218.8,35.7c0.2,0,0.3,0,0.5-0.1c0.2-0.1,0.3-0.2,0.5-0.3c0.1-0.1,0.3-0.2,0.4-0.3c0.8-0.7,1.6-1.5,2.3-2.4
			c0.7-0.9,1.3-1.9,1.8-2.9c-0.6-0.1-1.1-0.2-1.6-0.3c-0.5-0.1-0.9-0.2-1.2-0.4c-0.4-0.1-0.7-0.3-1-0.4c-0.3,0.5-0.6,1.1-0.9,1.7
			s-0.6,1.2-0.8,1.7c-0.2,0.6-0.4,1.1-0.6,1.6c-0.1,0.5-0.2,0.9-0.2,1.3C218,35.4,218.3,35.6,218.8,35.7z M221.1,27.6
			c0.3,0.2,0.7,0.3,1,0.4c0.3,0.1,0.7,0.3,1.2,0.4c0.5,0.1,1,0.2,1.5,0.3c0.5-1.1,0.8-2.1,1-3.2c0.2-1,0.3-2,0.2-2.8
			c-0.1-0.6-0.2-1.2-0.5-1.6c-0.3-0.4-0.5-0.8-0.8-1.1s-0.6-0.5-0.9-0.6c-0.3-0.2-0.5-0.3-0.7-0.3c-0.4-0.1-0.8-0.2-1.1-0.1
			c-0.4,0-0.7,0-0.9,0.1c-0.3,0.1-0.6,0.2-0.9,0.3c-0.3,0.2-0.7,0.4-0.9,0.8c-0.3,0.4-0.5,0.8-0.7,1.3c-0.2,0.5-0.3,1-0.3,1.6
			c0,0.6,0,1.1,0.2,1.6c0.4-0.5,0.8-1,1.1-1.3c0.3-0.4,0.6-0.7,1-0.9c0.3-0.3,0.5-0.5,0.9-0.6c0.3-0.1,0.5-0.3,0.9-0.4
			c0.3-0.1,0.6-0.1,0.9,0c0.3,0.1,0.6,0.4,0.6,0.7c0.1,0.3,0.1,0.7,0,1.1c-0.1,0.4-0.3,0.9-0.6,1.4c-0.3,0.5-0.6,1-0.9,1.4
			c-0.1,0.2-0.3,0.4-0.5,0.7C221.6,27,221.4,27.3,221.1,27.6z"/>
		<path class="st1" d="M232.1,32.2c-0.1,0.5,0,0.9,0.1,1.4s0.4,0.8,0.9,1c0.1,0.1,0.2,0.1,0.4,0.1c0.1,0,0.3,0.1,0.4,0.1
			c0.9,0.1,1.7,0.1,2.5-0.2c0.7-0.2,1.4-0.5,1.9-0.9c0.5-0.3,0.8-0.5,1.2-0.8c0.3-0.3,0.6-0.5,0.8-0.7c0.5-0.5,1-1,1.4-1.5
			c0.5-0.5,0.9-1,1.2-1.5c0.4-0.5,0.8-1,1.2-1.6c0.4-0.6,0.8-1.1,1.2-1.7c0.4-0.6,0.7-1,1-1.5c0.1-0.1,0.1-0.2,0.2-0.3
			c0.1-0.1,0.3-0.2,0.4-0.2c0.1,0.1,0.3,0.2,0.3,0.3c0.1,0.1,0.1,0.4,0,0.6c-0.2,0.5-0.5,0.9-0.8,1.4c-0.2,0.4-0.5,0.8-0.8,1.3
			c-0.3,0.5-0.6,1-0.9,1.4c-0.1,0.2-0.2,0.4-0.4,0.6c-0.1,0.2-0.3,0.4-0.5,0.6c-0.2,0.2-0.4,0.4-0.6,0.7c-0.2,0.3-0.5,0.6-1,1.2
			s-1.1,1.1-1.8,1.6c-0.7,0.6-1.5,1.1-2.4,1.6c-0.9,0.5-1.9,0.8-2.9,1c-1.1,0.2-2,0.2-2.7,0.1c-0.7-0.1-1.3-0.3-1.7-0.5
			c-0.5-0.3-0.9-0.6-1.2-1c-0.4-0.6-0.6-1.3-0.7-2.3c-0.1-1,0.1-2.2,0.5-3.7c0.3-1.1,0.6-2.1,1.1-3c0.4-0.9,0.8-1.7,1.2-2.3
			c0.5-0.7,1-1.4,1.5-1.9c0.5-0.6,1-1.1,1.5-1.5s1-0.7,1.4-0.9c0.5-0.3,1-0.5,1.4-0.6c0.3-0.1,0.6-0.2,1-0.2c0.3,0,0.7,0,1,0
			c0.4,0.1,0.8,0.2,1.2,0.4c0.1,0.1,0.2,0.1,0.3,0.2c0.2,0.1,0.4,0.3,0.7,0.6c0.3,0.3,0.5,0.7,0.6,1.1c0.1,0.4,0.3,0.8,0.3,1.4
			c0.1,0.5,0.1,1.1,0,1.8c0,0.1-0.1,0.4-0.1,0.6c-0.1,0.3-0.2,0.6-0.3,0.8s-0.3,0.5-0.5,0.7c-0.2,0.2-0.4,0.3-0.7,0.3
			c-0.4,0-0.6-0.1-0.8-0.2c-0.2-0.1-0.3-0.3-0.3-0.6c0-0.3,0-0.6,0.1-1c0.1-0.4,0.2-0.8,0.4-1.2c0.2-0.4,0.3-0.7,0.4-1.1
			c0.1-0.4,0.1-0.7,0-0.9c-0.1-0.2-0.2-0.3-0.4-0.3c-0.6-0.3-1.4,0-2.3,0.7c-0.9,0.8-1.9,1.9-2.9,3.3c-0.5,0.6-0.9,1.3-1.3,2.1
			c-0.4,0.8-0.8,1.6-1.1,2.4v0c-0.1,0.2-0.2,0.4-0.3,0.7c-0.1,0.2-0.1,0.5-0.2,0.8C232.2,31.6,232.1,31.9,232.1,32.2z"/>
		<path class="st1" d="M255.1,29.2c-0.7,1-1.5,2-2.3,2.8c-0.7,0.7-1.4,1.4-2.3,2.1c-0.8,0.7-1.7,1.1-2.6,1.2
			c-0.4,0.1-0.9,0.1-1.4,0.1c-0.5,0-1-0.3-1.5-0.7c-0.3-0.3-0.6-0.7-0.6-1.3c-0.1-0.6-0.1-1.2-0.1-1.8c0-0.7,0.1-1.5,0.3-2.2
			c0.2-0.9,0.4-1.8,0.7-2.7c0.3-0.9,0.6-1.8,0.9-2.7c0.3-0.9,0.6-1.6,0.9-2.3s0.6-1.3,0.8-1.8c0.9-2.1,2-4.1,3.2-6.1
			c-0.6,0-1.2,0-1.8,0c-0.5,0-1.1,0-1.7,0c-0.6,0-1.2,0-1.7-0.1c-1.2,0-2.2,0.1-3.1,0.4c-0.9,0.3-1.7,0.7-2.3,1.1
			c-0.7,0.4-1.3,0.9-1.8,1.3c-0.5,0.4-1,0.8-1.4,1c-0.6,0.3-1,0.4-1.4,0.4c-0.3,0-0.6-0.1-0.9-0.3c-0.3-0.2-0.4-0.5-0.6-0.9
			c-0.2-0.7-0.1-1.3,0.3-1.8s0.9-0.9,1.5-1.2c0.7-0.3,1.5-0.6,2.5-0.8c0.5-0.1,1.1-0.2,1.8-0.2c0.7-0.1,1.5-0.1,2.5-0.1
			c1,0,2.3,0,3.8,0.1c0.7,0,1.4,0,2,0c0.6,0,1.2,0,1.6-0.1c0.5,0,1-0.1,1.5-0.1c0.8-1.1,1.6-2.2,2.3-3.2c0.8-1,1.6-1.9,2.3-2.7
			s1.5-1.5,2.2-2c0.7-0.5,1.3-0.9,1.9-1.1c0.3-0.1,0.6-0.2,0.9-0.2c0.3,0,0.5,0,0.8,0c0.3,0,0.6,0.1,0.8,0.3c0.3,0.2,0.6,0.6,0.7,1
			c0.1,0.4,0.2,0.9,0.2,1.5c0,0.6-0.2,1.3-0.5,2.2c-0.4,0.9-1,1.7-1.7,2.5c-0.7,0.7-1.5,1.3-2.5,1.8c-1,0.5-2.3,0.9-3.9,1
			c-0.4,0.7-0.8,1.4-1.2,2.1c-0.3,0.6-0.7,1.2-1.1,1.9c-0.4,0.7-0.7,1.3-1,1.9c-1,1.8-1.8,3.7-2.6,5.4c-0.3,0.7-0.6,1.5-0.9,2.3
			c-0.3,0.8-0.6,1.6-0.8,2.3c-0.2,0.8-0.4,1.5-0.6,2.2s-0.2,1.3-0.1,1.9c0,0.2,0.1,0.4,0.2,0.6c0.1,0.2,0.3,0.2,0.6,0.1
			c0.7-0.2,1.3-0.6,2.1-1.3c0.7-0.7,1.4-1.4,2.1-2.1c0.7-0.9,1.5-1.8,2.2-2.9c0.4-0.6,0.8-1.1,1.2-1.7c0.4-0.6,0.7-1,1-1.5
			c0.1-0.1,0.2-0.2,0.3-0.3c0.1-0.1,0.3-0.2,0.4-0.2c0.1,0.1,0.2,0.2,0.3,0.3c0.1,0.1,0.1,0.4-0.1,0.6c-0.2,0.5-0.5,0.9-0.8,1.4
			c-0.2,0.4-0.5,0.8-0.8,1.3C255.6,28.2,255.3,28.7,255.1,29.2z M261.2,9.4c0.6-0.7,1.1-1.3,1.3-1.8c0.2-0.5,0.4-0.9,0.4-1.2
			c0.1-0.3,0-0.6-0.2-0.9c-0.1-0.1-0.2-0.1-0.5-0.1c-0.2,0-0.6,0.1-1.1,0.5c-0.5,0.3-1.1,1-1.8,1.8c-0.8,0.9-1.7,2.2-2.8,3.9
			c0.7-0.1,1.4-0.3,2-0.5c0.6-0.3,1.1-0.5,1.5-0.8C260.4,10.1,260.8,9.8,261.2,9.4z"/>
		<path class="st1" d="M263,32.4c-0.3,0.5-0.8,1-1.2,1.5c-0.4,0.4-0.9,0.8-1.5,1.2c-0.6,0.4-1.3,0.7-2.1,0.9c-0.7,0.2-1.4,0.2-1.9,0
			c-0.6-0.2-1.1-0.6-1.4-1.1c-0.4-0.6-0.6-1.3-0.6-2.3c-0.1-1,0.1-2.1,0.5-3.5c0.3-1.1,0.6-2.1,1.1-3c0.4-0.9,0.8-1.7,1.2-2.3
			c0.5-0.7,1-1.4,1.5-1.9c0.5-0.6,1-1.1,1.6-1.6c0.5-0.4,1.1-0.8,1.8-1.1c0.7-0.3,1.5-0.5,2.3-0.6c0.8-0.1,1.5,0.1,2,0.4
			c0.5,0.3,0.9,0.7,1.2,1.3s0.4,1.6,0.2,2.8c0.3-0.2,0.5-0.4,0.8-0.4c0.3-0.1,0.5,0,0.8,0.1c0.3,0.2,0.5,0.5,0.6,0.8
			s0.1,0.7,0.1,1.1c0,0.4-0.1,0.7-0.3,1.1c-0.1,0.4-0.2,0.6-0.4,0.9c-0.5,0.9-0.9,1.9-1.5,2.9c-0.5,1.1-0.9,2-1.3,3
			c-0.4,0.9-0.6,1.8-0.7,2.5c-0.1,0.7,0,1.2,0.4,1.4c0.3-0.1,0.6-0.4,1-0.7s0.7-0.7,1-1.1c0.4-0.4,0.7-0.8,1-1.3s0.7-0.9,1-1.4
			c0.7-1.1,1.5-2.2,2.2-3.5c0.6-1,1.1-1.8,1.5-2.6c0.4-0.8,0.8-1.3,1.1-1.7c0.1-0.1,0.1-0.1,0.2-0.1c0.1-0.1,0.2,0,0.4,0
			c0.1,0.1,0.1,0.2,0,0.5c-0.3,0.7-0.6,1.5-1,2.4c-0.3,0.7-0.8,1.6-1.3,2.6c-0.6,1-1.2,2.1-2,3.2c-0.5,0.7-1,1.4-1.5,2
			c-0.5,0.6-1,1.1-1.6,1.7c-0.6,0.5-1.2,0.9-1.7,1.2c-0.4,0.2-0.7,0.3-1,0.3c-0.3,0-0.5,0-0.8,0c-0.3-0.1-0.5-0.2-0.6-0.3
			c-0.3-0.2-0.5-0.4-0.7-0.7c-0.2-0.2-0.3-0.5-0.4-0.7c-0.1-0.3-0.2-0.5-0.2-0.8c-0.1-0.4-0.1-0.9-0.1-1.4
			C262.8,33.6,262.9,33,263,32.4z M258.6,34.5c0.2-0.1,0.3-0.2,0.5-0.3c0.2-0.1,0.3-0.2,0.5-0.3c0.2-0.1,0.3-0.3,0.5-0.4
			c0.6-0.5,1.1-1,1.6-1.6c0.5-0.6,1-1.2,1.4-1.7c0.5-0.6,0.9-1.3,1.3-1.9c0.2-0.4,0.4-0.9,0.6-1.3c0.2-0.4,0.5-0.8,0.7-1.2
			c0.3-0.4,0.5-0.8,0.7-1.2c0-0.1,0.1-0.4,0.1-0.7c0-0.3,0-0.6,0-1c0-0.3-0.1-0.7-0.2-0.9c-0.1-0.3-0.3-0.5-0.5-0.6
			c-0.6-0.3-1.4,0-2.3,0.7c-0.9,0.8-1.9,1.9-3,3.3c-0.5,0.7-1,1.5-1.5,2.4c-0.5,0.9-0.9,1.8-1.2,2.7c-0.3,0.9-0.6,1.7-0.7,2.4
			c-0.2,0.7-0.2,1.2,0,1.5c0.1,0.3,0.4,0.5,0.7,0.4C258,34.8,258.3,34.7,258.6,34.5z"/>
		<path class="st1" d="M292.1,10.6c-2-0.1-4.2,0-6.6,0.1c-0.3,0.5-0.6,1-0.9,1.4c-0.3,0.5-0.5,0.9-0.7,1.2c-0.4,0.7-0.8,1.4-1.2,2.1
			c-0.3,0.6-0.7,1.2-1,1.9s-0.7,1.3-1,1.9c-1,1.8-1.8,3.7-2.6,5.4c-0.3,0.7-0.6,1.5-0.9,2.3c-0.3,0.8-0.6,1.6-0.8,2.3
			c-0.2,0.8-0.4,1.5-0.6,2.2c-0.1,0.7-0.2,1.3-0.1,1.9c0,0.2,0.1,0.4,0.2,0.6c0.1,0.2,0.3,0.2,0.6,0.1c0.7-0.2,1.3-0.6,2.1-1.3
			c0.7-0.7,1.4-1.4,2.1-2.1c0.7-0.9,1.5-1.8,2.2-2.9c0.4-0.6,0.8-1.1,1.2-1.7c0.4-0.6,0.7-1,1-1.5c0.1-0.1,0.1-0.2,0.2-0.3
			c0.1-0.1,0.3-0.2,0.4-0.2c0.1,0.1,0.3,0.2,0.3,0.3c0.1,0.1,0.1,0.4-0.1,0.6c-0.2,0.5-0.5,0.9-0.8,1.4c-0.2,0.4-0.5,0.8-0.8,1.3
			c-0.3,0.5-0.6,1-0.9,1.4c-0.7,1-1.5,2-2.3,2.8c-0.7,0.7-1.5,1.4-2.3,2.1c-0.9,0.7-1.7,1.1-2.6,1.2c-0.4,0.1-0.9,0.1-1.4,0.1
			c-0.5,0-1-0.3-1.5-0.7c-0.3-0.3-0.5-0.7-0.6-1.3c-0.1-0.6-0.1-1.2-0.1-1.8c0-0.7,0.1-1.5,0.3-2.2c0.2-0.8,0.4-1.6,0.6-2.5
			c0.2-0.8,0.5-1.6,0.8-2.4c0.4-1.2,0.9-2.5,1.4-3.7c0.5-1.3,1.1-2.5,1.6-3.6c0.6-1.2,1.1-2.3,1.7-3.3c0.6-1,1.1-2,1.6-2.8
			c-0.9,0.1-1.7,0.1-2.4,0.3c-0.7,0.1-1.4,0.2-2.1,0.3c-0.7,0.1-1.4,0.2-1.9,0.2c-0.5,0.1-1.1,0.2-1.7,0.3c-0.5,0.1-1.1,0.1-1.7,0.2
			c-0.7,0.1-1.4,0.2-2.1,0.2c-1.8,0.2-3.3,0.2-4.5,0.1c-1.3-0.1-2.3-0.2-3.1-0.4c-1-0.2-1.8-0.5-2.4-0.8c-0.5-0.3-0.8-0.5-1-0.8
			s-0.4-0.6-0.4-0.9c-0.1-0.3-0.1-0.5-0.1-0.7c0-0.2,0-0.4,0.1-0.4c0.1-0.2,0.1-0.4,0.2-0.6c0.1-0.1,0.1-0.3,0.3-0.4
			c0.1-0.1,0.2-0.2,0.4-0.2c0.5-0.1,0.7,0,0.8,0.3c0.1,0.3,0.1,0.6,0.1,1.1c0,0.5,0.2,0.9,0.6,1.2c0.4,0.3,1,0.6,1.7,0.9
			c0.8,0.3,2,0.4,3.5,0.4c0.5,0,1.1,0,1.8-0.1c0.6-0.1,1.2-0.1,2-0.2c0.8-0.1,1.7-0.2,2.6-0.3c1.6-0.2,3.1-0.4,4.4-0.6
			c1.3-0.1,2.4-0.3,3.3-0.4c1.1-0.1,2-0.2,2.8-0.3c0.5-0.7,0.8-1.2,1-1.5c0.6-0.9,1.1-1.6,1.5-2.1s0.8-1,1.2-1.3
			c0.3-0.3,0.7-0.6,1-0.7c0.3-0.1,0.6-0.2,0.9-0.3c0.3,0,0.6,0,0.9,0.3c0.2,0.2,0.4,0.5,0.4,0.8c0,0.3,0,0.7-0.1,1.1
			c-0.1,0.4-0.3,0.9-0.6,1.3c-0.3,0.5-0.5,0.9-0.9,1.4c0,0.1-0.1,0.1-0.1,0.2c-0.1,0.1-0.1,0.1-0.2,0.2c-0.1,0.1-0.1,0.2-0.2,0.3
			c0.7,0,1.3,0,1.9-0.1c0.6,0,1.2,0,1.8,0c1,0,2,0.1,2.9,0.2c0.8,0.1,1.7,0.2,2.7,0.4c1,0.2,1.8,0.5,2.6,0.9
			c0.3,0.1,0.5,0.3,0.8,0.5c0.2,0.1,0.5,0.3,0.7,0.6s0.5,0.5,0.7,0.8c0.1,0.2,0.1,0.4,0.2,0.6c0.1,0.2,0.1,0.4,0.1,0.7
			c0,0.3,0,0.5,0,0.9c-0.1,0.7-0.2,1.1-0.5,1.3c-0.2,0.2-0.5,0.3-0.7,0.3c-0.2,0-0.3-0.1-0.3-0.3c0-0.2,0.1-0.4,0.2-0.6
			c0.1-0.3,0.1-0.6,0.1-0.8c0-0.2,0-0.4,0-0.6c0-0.2-0.1-0.4-0.1-0.5c-0.1-0.3-0.3-0.5-0.6-0.8s-0.5-0.4-0.8-0.6
			c-0.3-0.2-0.7-0.3-1-0.5c-0.5-0.1-1-0.3-1.5-0.4c-0.5-0.1-1.1-0.2-1.7-0.3C293.7,10.7,293,10.6,292.1,10.6z"/>
		<path class="st1" d="M287.4,34.9c-0.1,0-0.2,0.1-0.4,0.2c-0.2,0.1-0.6,0.2-0.9,0.3c-0.4,0.1-0.8,0.1-1.2,0
			c-0.4-0.1-0.9-0.3-1.3-0.6c-0.4-0.4-0.7-1-0.7-1.8c-0.1-0.8,0-1.7,0.2-2.8c0.2-1,0.5-2,0.9-3.1c0.4-1,0.8-1.9,1.2-2.7
			c0.7-1.1,1.2-2,1.7-2.7c0.5-0.7,0.9-1.2,1.3-1.6c0.3-0.3,0.6-0.5,0.9-0.7c0.2-0.1,0.5-0.3,0.8-0.3c0.3-0.1,0.6-0.1,0.9,0
			c0.3,0.1,0.5,0.4,0.6,0.7c0.1,0.3,0.1,0.7,0,1.2c-0.1,0.4-0.3,0.9-0.5,1.4c-0.2,0.5-0.5,1-0.9,1.5c-0.3,0.4-0.6,1-1.1,1.9
			s-0.9,1.7-1.4,2.6c-0.4,0.9-0.8,1.8-1.1,2.7c-0.3,0.9-0.4,1.6-0.4,2.2c0,0.2,0.1,0.4,0.2,0.6c0.1,0.2,0.3,0.2,0.7,0
			c0.2-0.1,0.4-0.2,0.6-0.4c0.2-0.2,0.5-0.4,0.7-0.6c0.3-0.3,0.5-0.5,0.7-0.8c0.2-0.3,0.4-0.5,0.7-0.8c0.2-0.3,0.4-0.6,0.7-0.9
			c0.4-0.6,0.8-1.3,1.2-1.9c0.4-0.7,0.8-1.3,1.2-1.8c0.3-0.6,0.6-1.1,0.9-1.5c0.3-0.4,0.5-0.8,0.7-1c0,0,0.1,0,0.1,0h0.1
			c0.1,0,0.1,0,0.2,0c0.1,0,0.1,0,0.2,0c0.1,0.1,0.2,0.2,0.2,0.4c-0.1,0.2-0.3,0.7-0.7,1.7c-0.2,0.5-0.4,1-0.7,1.5
			c-0.3,0.6-0.6,1.2-1,1.8c-0.4,0.7-0.8,1.3-1.3,1.9c-0.4,0.6-0.9,1.2-1.5,1.8c-0.2,0.2-0.5,0.4-0.7,0.6c-0.2,0.2-0.4,0.4-0.7,0.6
			C287.9,34.6,287.7,34.8,287.4,34.9z M297.9,9.2c0.3,0.2,0.5,0.5,0.6,0.8c0.1,0.2,0.1,0.5,0.1,0.8c-0.1,0.3-0.3,0.6-0.6,0.9
			c-0.5,0.4-1,0.9-1.7,1.4c-0.6,0.5-1.2,1-1.8,1.6s-1,1.1-1.3,1.6c-0.3,0.6-0.4,1.1-0.3,1.6c0,0.1,0,0.2,0,0.3
			c0,0.2-0.1,0.4-0.4,0.4c-0.3,0.1-0.6,0-0.8-0.2c-0.2-0.2-0.4-0.4-0.5-0.7c-0.1-0.4-0.2-0.9-0.1-1.5c0-0.6,0.2-1.3,0.4-2
			c0.2-0.7,0.5-1.4,1-2c0.4-0.7,0.9-1.3,1.5-1.8c0.5-0.4,1-0.8,1.5-1c0.4-0.2,0.8-0.4,1.3-0.4C297.1,8.8,297.5,8.9,297.9,9.2z"/>
		<path class="st1" d="M295.6,34.6c0.5,0.3,1,0.4,1.6,0.3c0.6-0.1,1.2-0.2,1.7-0.3c0.6-0.2,1.3-0.5,1.9-0.8c0.4-0.3,0.8-0.5,1.1-0.8
			c0.3-0.3,0.6-0.5,0.8-0.7c0.5-0.5,1-1,1.4-1.5c0.5-0.5,0.9-1,1.2-1.5c0.4-0.5,0.8-1,1.2-1.6c0.4-0.6,0.8-1.1,1.2-1.7
			c0.4-0.6,0.7-1,1-1.5c0.1-0.1,0.2-0.2,0.3-0.3c0.1-0.1,0.3-0.2,0.4-0.2c0.1,0.1,0.3,0.2,0.3,0.3c0.1,0.1,0.1,0.4-0.1,0.6
			c-0.2,0.5-0.5,0.9-0.8,1.4c-0.2,0.4-0.5,0.8-0.8,1.3c-0.3,0.5-0.6,1-0.9,1.4c-0.1,0.2-0.2,0.4-0.4,0.6c-0.3,0.3-0.6,0.8-1,1.3
			c-0.2,0.3-0.5,0.6-1,1.2c-0.5,0.5-1.1,1.1-1.8,1.6c-0.7,0.6-1.5,1.1-2.4,1.6c-0.9,0.5-1.9,0.8-2.9,1c-1.1,0.2-2,0.2-2.7,0.1
			c-0.7-0.1-1.3-0.3-1.7-0.5c-0.4-0.2-0.8-0.6-1.2-1c-0.4-0.6-0.6-1.3-0.7-2.3c-0.1-1,0.1-2.2,0.5-3.7c0.3-1.1,0.6-2.1,1.1-3
			c0.4-0.9,0.8-1.7,1.2-2.3c0.5-0.7,1-1.4,1.5-1.9c0.5-0.6,1-1.1,1.5-1.5c0.5-0.4,1-0.7,1.4-0.9c0.5-0.3,1-0.5,1.4-0.6
			c0.3-0.1,0.6-0.2,1-0.2c0.3,0,0.7,0,1,0c0.4,0.1,0.8,0.2,1.2,0.4c0.1,0.1,0.3,0.2,0.5,0.3c0.1,0.1,0.3,0.3,0.4,0.4
			c0.2,0.2,0.3,0.4,0.4,0.6c0.2,0.4,0.3,0.8,0.4,1.3c0.1,0.4,0.1,0.9,0.1,1.5c0,0.6-0.1,1.2-0.4,1.9v0c-0.3,0.7-0.6,1.4-1.1,2.1
			c-0.5,0.7-1.1,1.3-1.9,1.9c-0.7,0.5-1.4,0.9-2,1.3c-0.7,0.4-1.3,0.6-1.9,0.9c-0.6,0.2-1.1,0.4-1.6,0.5c-0.5,0.1-0.9,0.2-1.2,0.2
			c-0.1,0.5,0,1,0.1,1.5C294.8,34,295.1,34.3,295.6,34.6z M302.9,25c0.3-0.7,0.5-1.3,0.6-1.8c0.1-0.5,0-0.8,0-1.1
			c-0.1-0.3-0.3-0.6-0.5-0.7c-0.7-0.3-1.4,0-2.3,0.7c-0.9,0.8-1.9,1.9-2.9,3.3c-0.4,0.6-0.8,1.2-1.1,1.7c-0.3,0.5-0.6,1.1-0.9,1.7
			c-0.3,0.6-0.5,1.3-0.7,1.9c0.8-0.2,1.6-0.5,2.5-0.9c0.8-0.4,1.6-0.9,2.3-1.4c0.7-0.5,1.4-1.1,1.9-1.6
			C302.2,26.2,302.6,25.6,302.9,25z"/>
		<path class="st1" d="M318.6,21.2c0-0.1-0.1-0.2-0.2-0.3c-0.1,0-0.1,0-0.2,0c-0.1,0-0.4,0.2-0.9,0.5c-0.5,0.3-1,0.8-1.6,1.3
			c-0.6,0.6-1.2,1.2-1.9,2c-0.7,0.8-1.3,1.6-1.9,2.5c-0.6,0.9-1.1,1.8-1.5,2.8c-0.4,1-0.6,2-0.7,2.9v0.3c0,0.1,0,0.4,0.1,0.6
			c0.1,0.2,0.1,0.5,0.1,0.7c0,0.3-0.2,0.5-0.4,0.6c-0.4,0.2-0.8,0.2-1.2,0c-0.4-0.2-0.7-0.4-0.9-0.7c-0.4-0.8-0.6-1.6-0.6-2.6
			c0-1,0.1-1.9,0.3-2.7c0.3-1.5,0.8-3,1.3-4.4c0.6-1.4,1.3-2.8,2-4.2c0.2-0.3,0.4-0.6,0.6-0.9c0.2-0.3,0.5-0.6,0.8-0.9
			c0.3-0.3,0.6-0.4,1-0.6c0.4-0.1,0.7-0.1,1.1,0c0.4,0.1,0.6,0.4,0.7,0.7c0.1,0.3,0.1,0.7,0,1c-0.1,0.4-0.2,0.7-0.4,1.1
			c-0.2,0.4-0.3,0.6-0.5,0.9c-0.7,1.1-1.3,2.3-2,3.5c0.5-0.7,1-1.4,1.5-2.1c0.5-0.7,1.1-1.3,1.6-1.9c0.6-0.6,1.1-1.1,1.7-1.5
			c0.6-0.4,1.1-0.7,1.7-0.7c0.6-0.1,1.1-0.1,1.5,0.2c0.4,0.2,0.7,0.5,0.8,0.9c0.1,0.5,0.1,1.1-0.2,1.9c-0.3,0.7-0.6,1.3-1,1.8
			c-0.1,0.2-0.3,0.4-0.5,0.5c-0.1,0.1-0.3,0.2-0.5,0.2c-0.2,0-0.4,0-0.6-0.1c-0.4-0.2-0.5-0.4-0.5-0.7c0-0.3,0.1-0.6,0.3-0.9
			c0.2-0.3,0.4-0.6,0.6-0.9C318.5,21.6,318.6,21.3,318.6,21.2z"/>
		<path class="st1" d="M322.1,38.4c-0.4,0.2-0.7,0.4-1.1,0.5s-0.7,0.1-1,0.1c-0.3,0-0.7,0-1-0.1c-0.6-0.1-1.1-0.4-1.4-0.7
			c-0.3-0.3-0.5-0.7-0.7-1.1c-0.1-0.3-0.2-0.6-0.2-0.9c0-0.3,0-0.6,0-0.8c0-0.3,0.1-0.6,0.2-0.8c0.1-0.3,0.2-0.6,0.5-1
			c0.2-0.4,0.6-0.7,1.1-1c0.7-0.5,1.6-0.8,2.7-1c0.1-0.8,0.1-1.6,0-2.5c0-0.5-0.1-0.9-0.1-1.3c-0.1-0.8-0.2-1.4-0.3-1.9
			c-0.1-0.3-0.1-0.5-0.1-0.8c-0.2-1.3-0.1-2.5,0.1-3.6c0.3-1.1,0.6-2,1.1-2.7c0.3-0.5,0.7-0.9,1.1-1.3c0.3-0.3,0.8-0.6,1.3-0.7
			c0.5-0.2,1-0.2,1.6,0c0.3,0.1,0.7,0.3,1.1,0.6c0.4,0.3,0.6,0.9,0.6,1.6c0,0.2,0,0.5-0.1,1c-0.1,0.4-0.2,0.9-0.5,1.3
			c-0.2,0.3-0.4,0.6-0.6,0.8c-0.2,0.2-0.5,0.4-0.7,0.6c-0.3,0.1-0.5,0.2-0.6,0.2c-0.2,0-0.3-0.1-0.3-0.2c-0.2-0.2-0.2-0.4-0.1-0.6
			c0.1-0.1,0.1-0.2,0.3-0.3c0.3-0.2,0.5-0.5,0.8-0.8c0.2-0.3,0.4-0.7,0.5-1.1c0.1-0.5,0.2-0.8,0.1-1.1c0-0.2-0.1-0.4-0.3-0.5
			c-0.1-0.1-0.2-0.1-0.3-0.1c-0.1,0-0.2,0-0.3,0c-0.1,0-0.2,0.1-0.3,0.1c-0.4,0.3-0.7,0.7-0.9,1.2c-0.2,0.5-0.3,1.1-0.3,1.8
			c0,0.7,0,1.3,0,2c0.1,0.7,0.1,1.2,0.2,1.7c0.1,0.5,0.2,1.2,0.3,2.1c0.1,1,0.2,2,0.3,3.1c1.3-0.6,2.3-1,2.9-1.4
			c0.6-0.4,1.1-0.6,1.5-0.9c0.2-0.1,0.3-0.1,0.3-0.1c0.1,0.1,0.1,0.2,0.1,0.3s0,0.3,0,0.6c-0.5,0.3-1,0.7-1.5,1
			c-0.5,0.3-1,0.6-1.5,1c-0.5,0.3-1.1,0.6-1.7,0.9c0,0.7-0.1,1.3-0.2,1.9c-0.1,0.6-0.2,1.2-0.4,1.7c-0.1,0.4-0.3,0.8-0.5,1.2
			c-0.2,0.3-0.4,0.7-0.7,1.1C322.9,37.8,322.6,38.1,322.1,38.4z M318.5,36.3c0,0.1,0.1,0.2,0.1,0.3c0.1,0.1,0.1,0.1,0.2,0.2
			c0.1,0.1,0.2,0.1,0.3,0.2c0.2,0.1,0.4,0,0.6-0.1c0.2-0.2,0.3-0.3,0.5-0.5c0.1-0.2,0.3-0.5,0.4-0.9c0.1-0.3,0.2-0.6,0.2-0.9
			c0.1-0.3,0.1-0.5,0.2-0.8c0.1-0.3,0.1-0.5,0.1-0.8c-0.6,0.1-1.1,0.3-1.5,0.6c-0.4,0.3-0.6,0.5-0.8,0.8c-0.2,0.3-0.4,0.6-0.4,1
			c0,0.1,0,0.3,0,0.5C318.5,36,318.5,36.2,318.5,36.3z"/>
		<path class="st2" d="M243.2,56.5c0-0.8-0.5-1.1-1.5-1.5l-0.5-0.2c-1.2-0.5-2.1-1.2-2.1-2.4c0-1.4,1.2-2.2,2.7-2.2
			c0.8,0,1.4,0.3,2,0.6l-0.1,1.6H243l-0.3-1.8l0.8,0.4v0.6c-0.6-0.6-1-0.8-1.7-0.8c-0.9,0-1.6,0.5-1.6,1.4c0,0.8,0.5,1.2,1.4,1.5
			l0.5,0.2c1.6,0.6,2.2,1.3,2.2,2.4c0,1.4-1.2,2.3-2.8,2.3c-0.9,0-1.8-0.3-2.3-0.6l0.1-1.7h0.7l0.3,1.8l-0.8-0.3v-0.6
			c0.7,0.5,1.2,0.8,2,0.8C242.4,58,243.2,57.5,243.2,56.5z"/>
		<path class="st2" d="M245.9,58.4c0-0.5,0-1.8,0-2.5v-0.6c0-0.7,0-1,0-1.5l-1-0.1v-0.4l1.8-0.7l0.2,0.1l0,1.6v1.6c0,0.7,0,2,0,2.5
			H245.9z M247.8,58v0.4H245V58l1.3-0.2h0.2L247.8,58z M245.6,50.5c0-0.5,0.3-0.8,0.8-0.8c0.4,0,0.8,0.3,0.8,0.8
			c0,0.4-0.3,0.8-0.8,0.8C246,51.2,245.6,50.9,245.6,50.5z"/>
		<path class="st2" d="M249.6,58.4c0-0.5,0-1.8,0-2.5v-0.6c0-0.7,0-1,0-1.5l-1-0.1v-0.4l1.6-0.7l0.2,0.1l0.1,1.4v1.8
			c0,0.7,0,2,0,2.5H249.6z M251.4,58v0.4h-2.8V58l1.3-0.2h0.2L251.4,58z M254.2,54.8v1.1c0,0.8,0,2,0,2.5h-1c0-0.5,0-1.8,0-2.5v-1
			c0-1.1-0.3-1.5-1-1.5c-0.6,0-1.1,0.2-1.8,0.8h-0.3v-0.5h0.6l-0.5,0.2c0.6-0.8,1.5-1.3,2.4-1.3C253.7,52.6,254.2,53.2,254.2,54.8z
			 M253.9,57.8l1.2,0.2v0.4h-2.8V58l1.3-0.2H253.9z"/>
		<path class="st2" d="M256.9,55.5c0,1.5,0.8,2.3,1.9,2.3c0.7,0,1.3-0.3,1.7-0.9l0.3,0.1c-0.3,1-1.1,1.5-2.2,1.5
			c-1.6,0-2.7-1.2-2.7-3c0-1.9,1.3-3,2.7-3c1.1,0,2,0.7,2.1,1.5c-0.1,0.3-0.2,0.4-0.5,0.4c-0.4,0-0.6-0.2-0.6-0.5l-0.3-1.1l0.6,0.4
			c-0.4-0.2-0.8-0.3-1.2-0.3C257.7,53.1,256.9,54,256.9,55.5z"/>
		<path class="st2" d="M266.8,54.9c0,0.3,0,0.5-0.1,0.7h-4.4V55h2.9c0.6,0,0.7-0.3,0.7-0.6c0-0.7-0.6-1.3-1.3-1.3
			c-0.8,0-1.7,0.6-1.7,2.4c0,1.5,0.8,2.3,2,2.3c0.8,0,1.2-0.3,1.7-0.9l0.3,0.2c-0.4,0.9-1.2,1.4-2.3,1.4c-1.6,0-2.7-1.1-2.7-2.9
			c0-1.8,1.2-3.1,2.7-3.1C265.8,52.6,266.8,53.4,266.8,54.9z"/>
		<path class="st2" d="M275.5,58v0.4h-4.4V58l1.7-0.3h1L275.5,58z M273.6,50.6l0.2,0.1l0,1.7v3.5c0,0.8,0,1.7,0,2.5h-1
			c0-0.8,0-1.7,0-2.5v-4.3l-1.6,0.1v-0.5L273.6,50.6z"/>
		<path class="st2" d="M279.1,54.6c0.7,0,1.2-0.3,1.7-0.9l0.2,0.1c-0.4,1-1.2,1.5-2.2,1.5c-1.3,0-2.3-0.9-2.3-2.4
			c0-1.5,1-2.5,2.5-2.5c1.5,0,2.5,1.2,2.5,3.1c0,2.3-1.2,4.3-4.3,5l-0.1-0.4c2.6-0.8,3.4-2.2,3.4-4.4c0-1.9-0.6-2.8-1.5-2.8
			c-0.8,0-1.5,0.6-1.5,1.8C277.5,54.1,278.2,54.6,279.1,54.6z"/>
		<path class="st2" d="M284.5,54.5l0.5,0.2c-1,0.5-1.5,1-1.5,1.9c0,0.9,0.6,1.5,1.5,1.5c0.9,0,1.4-0.6,1.4-1.5
			c0-0.7-0.4-1.1-1.9-1.8c-1.3-0.6-1.8-1.4-1.8-2.3c0-1.2,1-2,2.2-2c1.2,0,2,0.8,2,1.9c0,0.6-0.4,1.4-1.7,2.1l-0.5-0.2
			c1-0.7,1.3-1.1,1.3-1.9c0-0.7-0.4-1.3-1.2-1.3c-0.7,0-1.3,0.5-1.3,1.2c0,0.7,0.3,1.3,1.7,1.9c1.3,0.6,2,1.2,2,2.4
			c0,1.2-1.1,2-2.4,2c-1.4,0-2.5-0.7-2.5-2C282.6,55.7,283.3,55.1,284.5,54.5z"/>
		<path class="st2" d="M289.3,53.9c0.6-0.2,1.1-0.3,1.7-0.3c1.5,0,2.6,0.9,2.6,2.5c0,1.5-1.1,2.6-2.8,2.6c-1.2,0-2-0.6-2.2-1.7
			c0.1-0.3,0.3-0.4,0.6-0.4c0.4,0,0.5,0.2,0.7,0.8l0.2,0.9l-0.5-0.4c0.4,0.2,0.8,0.2,1.1,0.2c1.2,0,1.8-0.8,1.8-1.9
			c0-1.2-0.7-1.9-1.9-1.9c-0.3,0-0.7,0-1.1,0.1l-0.3-0.1l0.3-3.6h3.9v1h-3.7l0.3-0.5l-0.2,3h-0.5V53.9z"/>
	</g>
</g>
<line class="st3" x1="300.8" y1="52.5" x2="329.9" y2="52.5"/>
<line class="st3" x1="25.5" y1="52.5" x2="223.8" y2="52.5"/>
</svg>
