<?xml version="1.0" encoding="utf-8"?>
<!-- Generator: Adobe Illustrator 22.0.1, SVG Export Plug-In . SVG Version: 6.00 Build 0)  -->
<svg version="1.1" id="Layer_1" xmlns="http://www.w3.org/2000/svg" xmlns:xlink="http://www.w3.org/1999/xlink" x="0px" y="0px"
	 viewBox="0 0 142.6 66.2" style="enable-background:new 0 0 142.6 66.2;" xml:space="preserve">
<style type="text/css">
	.st0{fill:#DA9089;}
	.st1{fill:#231F20;}
	.st2{fill:#6A4025;}
	.st3{fill:none;stroke:#FDFEFE;stroke-miterlimit:10;}
</style>
<rect class="st0" width="142.4" height="66.2"/>
<path class="st1" d="M45.2,47.6c-0.9,0-1.8,0-2.6-0.2s-1.5-0.3-2-0.4c-0.7-0.2-1.3-0.4-1.8-0.6c-2-1-3.6-2.3-4.6-4.1
	c-0.7-1.1-1.1-2.3-1.4-3.6c-0.3-1.3-0.4-2.8-0.2-4.3c0.1-1.8,0.5-3.7,1.1-5.7s1.5-4.2,2.5-6.5c2.4-5,5.2-9.1,8.5-12.2
	c-0.4-0.2-1-0.5-1.7-0.9S41.5,8.4,40.6,8c-0.9-0.4-1.8-0.8-2.9-1.2c-1-0.4-2.1-0.8-3.2-1.1c-2.2-0.7-4.3-1.1-6.3-1.2h-0.7
	c-0.2,0-0.5,0-0.7,0s-0.4,0-0.6,0.1C25,4.7,24,5,23.2,5.5s-1.5,1.1-2,1.8s-1,1.3-1.4,2s-0.7,1.2-1.1,1.5c-0.5,0.5-0.9,0.8-1.2,0.9
	c-0.4,0.1-0.6,0.1-0.9,0s-0.6-0.3-0.8-0.6c-0.4-0.6-0.5-1.2-0.2-1.8s0.6-1.2,1.1-1.7C17.3,7,18,6.4,18.9,5.8c0.3-0.2,0.6-0.4,1-0.6
	c0.3-0.2,0.7-0.4,1.2-0.6s1-0.4,1.6-0.7c0.3-0.1,0.6-0.1,0.9-0.3c0.3-0.1,0.6-0.1,0.9-0.2s0.7-0.2,1-0.2c1.3-0.1,2.7-0.1,4.2,0
	s3.1,0.5,4.8,0.9S38,5.1,40,6c2,0.8,4,1.7,6.2,2.5c0.6-0.5,1.2-1,1.9-1.4c0.6-0.4,1.2-0.8,1.9-1.2s1.4-0.8,2.2-1.1
	c1.1-0.4,2-0.7,2.9-0.9c0.9-0.2,1.7-0.4,2.4-0.5c0.1,0,0.4-0.1,1-0.1s1.3,0,2,0c1.4,0.2,2.4,0.6,2.9,1.2s0.8,1.2,0.9,1.8
	c0,0.1,0,0.3,0,0.7c0,0.4-0.2,1-0.5,1.6c-0.3,0.6-0.8,1.2-1.5,1.9s-1.9,1.3-3.4,1.8c-0.8,0.3-1.7,0.5-2.8,0.6c-1,0.1-2.1,0.1-3.2,0
	c-0.9-0.1-1.8-0.2-2.7-0.5c-0.9-0.2-1.8-0.5-2.7-0.9c-2,2.1-4.2,5-6.5,8.7c-1.7,2.8-3,5.4-3.8,7.8s-1.3,4.6-1.5,6.5s0,3.7,0.4,5.1
	c0.4,1.5,1.1,2.7,1.9,3.7c0.9,1,1.9,1.7,3.1,2.2c1.2,0.5,2.5,0.7,3.8,0.6c1-0.1,2-0.2,2.9-0.4s1.7-0.4,2.4-0.7
	c0.8-0.3,1.5-0.6,2.2-0.9c1.1-0.6,2.3-1.3,3.6-2.3s2.7-2.2,4.2-3.8s3-3.4,4.5-5.7c1.6-2.2,3.1-4.9,4.7-7.9c0.3-0.4,0.7-0.5,1-0.4
	c0.2,0.1,0.3,0.2,0.4,0.4c0,0.2,0,0.4-0.1,0.6c-1.5,2.8-3,5.3-4.5,7.6c-1.6,2.3-3.2,4.4-4.9,6.2c-1.4,1.5-2.8,2.7-4.2,3.8
	s-2.8,2-4.3,2.8c-1.9,0.9-3.5,1.5-4.8,1.7C46.9,47.5,45.9,47.6,45.2,47.6z M61,9.7c0.5-0.3,1-0.7,1.2-1c0.3-0.4,0.5-0.7,0.6-1
	C63,7.3,63,6.9,63,6.5c-0.2-0.9-0.8-1.4-1.8-1.7c-1-0.2-2.1-0.1-3.3,0.1c-1,0.2-2.2,0.7-3.6,1.4c-1.4,0.7-3,1.8-4.6,3.2
	c1,0.3,2,0.6,3,0.8s2,0.3,3,0.4c1.3,0.1,2.4,0,3.3-0.3S60.5,10,61,9.7z"/>
<path class="st1" d="M79.9,24c0,0.4,0,0.8,0,1.3c-0.1,0.4-0.2,1-0.3,1.6c-0.1,0.7-0.4,1.4-0.7,2.2c0.3,0.1,0.6,0.1,1.1,0.1
	c0.4,0,0.9,0,1.3-0.1c0.4,0,0.8-0.1,1.2-0.2c0.4-0.1,0.7-0.1,0.9-0.2c0.2-0.1,0.4-0.1,0.4,0s0,0.2,0,0.3c-0.1,0.1-0.2,0.3-0.3,0.6
	c-0.5,0.1-1,0.3-1.5,0.4s-1,0.2-1.6,0.2c-0.6,0.1-1.3,0.1-2,0c-0.6,1.1-1.3,2.1-2,2.8c-0.7,0.8-1.4,1.4-2,1.8
	c-0.1,0.1-0.5,0.3-1,0.7c-0.5,0.3-1.1,0.6-1.8,0.9c-0.2,0.1-0.5,0.1-0.7,0.2c-0.2,0.1-0.5,0.1-0.8,0.1s-0.6,0-0.9,0
	c-0.3-0.1-0.7-0.1-1.1-0.2S67.4,36.2,67,36c-0.3-0.2-0.6-0.6-0.7-1c-0.1-0.5-0.2-1-0.2-1.6s0.1-1.2,0.2-1.9c0.1-0.7,0.3-1.4,0.6-2.1
	c0.2-0.5,0.3-0.9,0.5-1.3s0.3-0.7,0.5-1s0.3-0.6,0.5-0.8c-0.4-0.6-0.7-1.2-0.8-1.8c-0.1-0.6-0.1-1.2,0-1.8c0.1-0.6,0.3-1.1,0.6-1.6
	c0.3-0.5,0.6-1,1-1.3c0.6-0.6,1.2-1,1.9-1.2c0.7-0.2,1.4-0.4,2-0.4c0.7,0,1.5,0,2.2,0.2c0.9,0.2,1.7,0.5,2.2,0.9
	c0.6,0.4,1.1,0.9,1.4,1.4c0.4,0.5,0.6,1.1,0.7,1.7C79.8,22.8,79.9,23.4,79.9,24z M69.9,35.7c0.2,0,0.3,0,0.5-0.1s0.3-0.2,0.5-0.3
	c0.1-0.1,0.3-0.2,0.4-0.3c0.8-0.7,1.6-1.5,2.3-2.4c0.7-0.9,1.3-1.9,1.8-2.9c-0.6-0.1-1.1-0.2-1.6-0.3c-0.5-0.1-0.9-0.2-1.2-0.4
	c-0.4-0.1-0.7-0.3-1-0.4c-0.3,0.5-0.6,1.1-0.9,1.7S70,31.5,69.8,32c-0.2,0.6-0.4,1.1-0.6,1.6c-0.1,0.5-0.2,0.9-0.2,1.3
	C69.1,35.4,69.4,35.6,69.9,35.7z M72.2,27.6c0.3,0.2,0.7,0.3,1,0.4s0.7,0.3,1.2,0.4s1,0.2,1.5,0.3c0.5-1.1,0.8-2.1,1-3.2
	c0.2-1,0.3-2,0.2-2.8c-0.1-0.6-0.2-1.2-0.5-1.6s-0.5-0.8-0.8-1.1s-0.6-0.5-0.9-0.6c-0.3-0.2-0.5-0.3-0.7-0.3
	c-0.4-0.1-0.8-0.2-1.1-0.1c-0.4,0-0.7,0-0.9,0.1c-0.3,0.1-0.6,0.2-0.9,0.3c-0.3,0.2-0.7,0.4-0.9,0.8c-0.3,0.4-0.5,0.8-0.7,1.3
	s-0.3,1-0.3,1.6s0,1.1,0.2,1.6c0.4-0.5,0.8-1,1.1-1.3c0.3-0.4,0.6-0.7,1-0.9c0.3-0.3,0.5-0.5,0.9-0.6c0.3-0.1,0.5-0.3,0.9-0.4
	c0.3-0.1,0.6-0.1,0.9,0s0.6,0.4,0.6,0.7c0.1,0.3,0.1,0.7,0,1.1s-0.3,0.9-0.6,1.4c-0.3,0.5-0.6,1-0.9,1.4c-0.1,0.2-0.3,0.4-0.5,0.7
	C72.7,27,72.4,27.3,72.2,27.6z"/>
<path class="st1" d="M83.2,32.2c-0.1,0.5,0,0.9,0.1,1.4s0.4,0.8,0.9,1c0.1,0.1,0.2,0.1,0.4,0.1c0.1,0,0.3,0.1,0.4,0.1
	c0.9,0.1,1.7,0.1,2.5-0.2c0.7-0.2,1.4-0.5,1.9-0.9c0.5-0.3,0.8-0.5,1.2-0.8c0.3-0.3,0.6-0.5,0.8-0.7c0.5-0.5,1-1,1.4-1.5
	c0.5-0.5,0.9-1,1.2-1.5c0.4-0.5,0.8-1,1.2-1.6c0.4-0.6,0.8-1.1,1.2-1.7c0.4-0.6,0.7-1,1-1.5c0.1-0.1,0.1-0.2,0.2-0.3
	c0.1-0.1,0.3-0.2,0.4-0.2c0.1,0.1,0.3,0.2,0.3,0.3c0.1,0.1,0.1,0.4,0,0.6c-0.2,0.5-0.5,0.9-0.8,1.4c-0.2,0.4-0.5,0.8-0.8,1.3
	s-0.6,1-0.9,1.4c-0.1,0.2-0.2,0.4-0.4,0.6c-0.1,0.2-0.3,0.4-0.5,0.6s-0.4,0.4-0.6,0.7c-0.2,0.3-0.5,0.6-1,1.2
	c-0.5,0.6-1.1,1.1-1.8,1.6c-0.7,0.6-1.5,1.1-2.4,1.6s-1.9,0.8-2.9,1c-1.1,0.2-2,0.2-2.7,0.1c-0.7-0.1-1.3-0.3-1.7-0.5
	c-0.5-0.3-0.9-0.6-1.2-1c-0.4-0.6-0.6-1.3-0.7-2.3s0.1-2.2,0.5-3.7c0.3-1.1,0.6-2.1,1.1-3c0.4-0.9,0.8-1.7,1.2-2.3
	c0.5-0.7,1-1.4,1.5-1.9c0.5-0.6,1-1.1,1.5-1.5s1-0.7,1.4-0.9c0.5-0.3,1-0.5,1.4-0.6c0.3-0.1,0.6-0.2,1-0.2c0.3,0,0.7,0,1,0
	c0.4,0.1,0.8,0.2,1.2,0.4c0.1,0.1,0.2,0.1,0.3,0.2c0.2,0.1,0.4,0.3,0.7,0.6c0.3,0.3,0.5,0.7,0.6,1.1s0.3,0.8,0.3,1.4
	c0.1,0.5,0.1,1.1,0,1.8c0,0.1-0.1,0.4-0.1,0.6c-0.1,0.3-0.2,0.6-0.3,0.8s-0.3,0.5-0.5,0.7s-0.4,0.3-0.7,0.3c-0.4,0-0.6-0.1-0.8-0.2
	c-0.2-0.1-0.3-0.3-0.3-0.6c0-0.3,0-0.6,0.1-1s0.2-0.8,0.4-1.2c0.2-0.4,0.3-0.7,0.4-1.1s0.1-0.7,0-0.9c-0.1-0.2-0.2-0.3-0.4-0.3
	c-0.6-0.3-1.4,0-2.3,0.7c-0.9,0.8-1.9,1.9-2.9,3.3c-0.5,0.6-0.9,1.3-1.3,2.1c-0.4,0.8-0.8,1.6-1.1,2.4l0,0c-0.1,0.2-0.2,0.4-0.3,0.7
	c-0.1,0.2-0.1,0.5-0.2,0.8C83.3,31.6,83.2,31.9,83.2,32.2z"/>
<path class="st1" d="M108.3,24c0,0.4,0,0.8,0,1.3c-0.1,0.4-0.2,1-0.3,1.6c-0.1,0.7-0.4,1.4-0.7,2.2c0.3,0.1,0.6,0.1,1.1,0.1
	c0.4,0,0.9,0,1.3-0.1c0.4,0,0.8-0.1,1.2-0.2c0.4-0.1,0.7-0.1,0.9-0.2c0.2-0.1,0.4-0.1,0.4,0s0,0.2,0,0.3c-0.1,0.1-0.2,0.3-0.3,0.6
	c-0.5,0.1-1,0.3-1.5,0.4s-1,0.2-1.6,0.2c-0.6,0.1-1.3,0.1-2,0c-0.6,1.1-1.3,2.1-2,2.8c-0.7,0.8-1.4,1.4-2,1.8
	c-0.1,0.1-0.5,0.3-1,0.7c-0.5,0.3-1.1,0.6-1.8,0.9c-0.2,0.1-0.5,0.1-0.7,0.2c-0.2,0.1-0.5,0.1-0.8,0.1s-0.6,0-0.9,0
	c-0.3-0.1-0.7-0.1-1.1-0.2s-0.7-0.3-1.1-0.5c-0.3-0.2-0.6-0.6-0.7-1c-0.1-0.5-0.2-1-0.2-1.6s0.1-1.2,0.2-1.9
	c0.1-0.7,0.3-1.4,0.6-2.1c0.2-0.5,0.3-0.9,0.5-1.3s0.3-0.7,0.5-1s0.3-0.6,0.5-0.8c-0.4-0.6-0.7-1.2-0.8-1.8c-0.1-0.6-0.1-1.2,0-1.8
	c0.1-0.6,0.3-1.1,0.6-1.6c0.3-0.5,0.6-1,1-1.3c0.6-0.6,1.2-1,1.9-1.2c0.7-0.2,1.4-0.4,2-0.4c0.7,0,1.5,0,2.2,0.2
	c0.9,0.2,1.7,0.5,2.2,0.9c0.6,0.4,1.1,0.9,1.4,1.4c0.4,0.5,0.6,1.1,0.7,1.7C108.2,22.8,108.3,23.4,108.3,24z M98.3,35.7
	c0.2,0,0.3,0,0.5-0.1s0.3-0.2,0.5-0.3c0.1-0.1,0.3-0.2,0.4-0.3c0.8-0.7,1.6-1.5,2.3-2.4c0.7-0.9,1.3-1.9,1.8-2.9
	c-0.6-0.1-1.1-0.2-1.6-0.3c-0.5-0.1-0.9-0.2-1.2-0.4c-0.4-0.1-0.7-0.3-1-0.4c-0.3,0.5-0.6,1.1-0.9,1.7s-0.6,1.2-0.8,1.7
	c-0.2,0.6-0.4,1.1-0.6,1.6c-0.1,0.5-0.2,0.9-0.2,1.3C97.5,35.4,97.8,35.6,98.3,35.7z M100.6,27.6c0.3,0.2,0.7,0.3,1,0.4
	s0.7,0.3,1.2,0.4s1,0.2,1.5,0.3c0.5-1.1,0.8-2.1,1-3.2c0.2-1,0.3-2,0.2-2.8c-0.1-0.6-0.2-1.2-0.5-1.6s-0.5-0.8-0.8-1.1
	s-0.6-0.5-0.9-0.6c-0.3-0.2-0.5-0.3-0.7-0.3c-0.4-0.1-0.8-0.2-1.1-0.1c-0.4,0-0.7,0-0.9,0.1c-0.3,0.1-0.6,0.2-0.9,0.3
	c-0.3,0.2-0.7,0.4-0.9,0.8c-0.3,0.4-0.5,0.8-0.7,1.3s-0.3,1-0.3,1.6s0,1.1,0.2,1.6c0.4-0.5,0.8-1,1.1-1.3c0.3-0.4,0.6-0.7,1-0.9
	c0.3-0.3,0.5-0.5,0.9-0.6c0.3-0.1,0.5-0.3,0.9-0.4c0.3-0.1,0.6-0.1,0.9,0s0.6,0.4,0.6,0.7c0.1,0.3,0.1,0.7,0,1.1s-0.3,0.9-0.6,1.4
	c-0.3,0.5-0.6,1-0.9,1.4c-0.1,0.2-0.3,0.4-0.5,0.7C101.1,27,100.9,27.3,100.6,27.6z"/>
<path class="st1" d="M117,15.2c0,1.3-0.4,2.5-1.3,3.5s-1.9,1.6-3.1,1.6c-0.3,0-0.5-0.1-0.7-0.2s-0.2-0.3-0.2-0.7
	c0-0.4,0.1-0.7,0.3-1.1c0.6,0.2,1.2,0.2,1.7,0s0.8-0.8,0.9-1.8c-0.5-0.1-0.9-0.3-1.1-0.6c-0.2-0.3-0.3-0.6-0.3-1
	c0-0.5,0.2-1,0.6-1.3s0.9-0.5,1.5-0.5s1.1,0.2,1.4,0.5C116.8,14,117,14.5,117,15.2z"/>
<path class="st1" d="M120.7,38.4c-0.4,0.2-0.7,0.4-1.1,0.5s-0.7,0.1-1,0.1s-0.7,0-1-0.1c-0.6-0.1-1.1-0.4-1.4-0.7s-0.5-0.7-0.7-1.1
	c-0.1-0.3-0.2-0.6-0.2-0.9c0-0.3,0-0.6,0-0.8c0-0.3,0.1-0.6,0.2-0.8c0.1-0.3,0.2-0.6,0.5-1c0.2-0.4,0.6-0.7,1.1-1
	c0.7-0.5,1.6-0.8,2.7-1c0.1-0.8,0.1-1.6,0-2.5c0-0.5-0.1-0.9-0.1-1.3c-0.1-0.8-0.2-1.4-0.3-1.9c-0.1-0.3-0.1-0.5-0.1-0.8
	c-0.2-1.3-0.1-2.5,0.1-3.6c0.3-1.1,0.6-2,1.1-2.7c0.3-0.5,0.7-0.9,1.1-1.3c0.3-0.3,0.8-0.6,1.3-0.7c0.5-0.2,1-0.2,1.6,0
	c0.3,0.1,0.7,0.3,1.1,0.6c0.4,0.3,0.6,0.9,0.6,1.6c0,0.2,0,0.5-0.1,1c-0.1,0.4-0.2,0.9-0.5,1.3c-0.2,0.3-0.4,0.6-0.6,0.8
	c-0.2,0.2-0.5,0.4-0.7,0.6c-0.3,0.1-0.5,0.2-0.6,0.2c-0.2,0-0.3-0.1-0.3-0.2c-0.2-0.2-0.2-0.4-0.1-0.6c0.1-0.1,0.1-0.2,0.3-0.3
	c0.3-0.2,0.5-0.5,0.8-0.8c0.2-0.3,0.4-0.7,0.5-1.1c0.1-0.5,0.2-0.8,0.1-1.1c0-0.2-0.1-0.4-0.3-0.5c-0.1-0.1-0.2-0.1-0.3-0.1
	c-0.1,0-0.2,0-0.3,0c-0.1,0-0.2,0.1-0.3,0.1c-0.4,0.3-0.7,0.7-0.9,1.2c-0.2,0.5-0.3,1.1-0.3,1.8c0,0.7,0,1.3,0,2
	c0.1,0.7,0.1,1.2,0.2,1.7s0.2,1.2,0.3,2.1c0.1,1,0.2,2,0.3,3.1c1.3-0.6,2.3-1,2.9-1.4s1.1-0.6,1.5-0.9c0.2-0.1,0.3-0.1,0.3-0.1
	c0.1,0.1,0.1,0.2,0.1,0.3s0,0.3,0,0.6c-0.5,0.3-1,0.7-1.5,1s-1,0.6-1.5,1c-0.5,0.3-1.1,0.6-1.7,0.9c0,0.7-0.1,1.3-0.2,1.9
	s-0.2,1.2-0.4,1.7c-0.1,0.4-0.3,0.8-0.5,1.2c-0.2,0.3-0.4,0.7-0.7,1.1C121.4,37.8,121.1,38.1,120.7,38.4z M117.1,36.3
	c0,0.1,0.1,0.2,0.1,0.3c0.1,0.1,0.1,0.1,0.2,0.2c0.1,0.1,0.2,0.1,0.3,0.2c0.2,0.1,0.4,0,0.6-0.1c0.2-0.2,0.3-0.3,0.5-0.5
	c0.1-0.2,0.3-0.5,0.4-0.9c0.1-0.3,0.2-0.6,0.2-0.9c0.1-0.3,0.1-0.5,0.2-0.8s0.1-0.5,0.1-0.8c-0.6,0.1-1.1,0.3-1.5,0.6
	s-0.6,0.5-0.8,0.8c-0.2,0.3-0.4,0.6-0.4,1c0,0.1,0,0.3,0,0.5C117,36,117,36.2,117.1,36.3z"/>
<g>
	<path class="st2" d="M74.4,53.6c0-0.8-0.5-1.1-1.5-1.5l-0.5-0.2c-1.2-0.5-2.1-1.2-2.1-2.4c0-1.4,1.2-2.2,2.7-2.2
		c0.8,0,1.4,0.3,2,0.6l-0.1,1.6h-0.7l-0.3-1.8l0.8,0.4v0.6c-0.6-0.6-1-0.8-1.7-0.8c-0.9,0-1.6,0.5-1.6,1.4c0,0.8,0.5,1.2,1.4,1.5
		l0.5,0.2c1.6,0.6,2.2,1.3,2.2,2.4c0,1.4-1.2,2.3-2.8,2.3c-0.9,0-1.8-0.3-2.3-0.6l0.1-1.7h0.7l0.3,1.8l-0.8-0.3v-0.6
		c0.7,0.5,1.2,0.8,2,0.8C73.6,55.1,74.4,54.6,74.4,53.6z"/>
	<path class="st2" d="M77.1,55.5c0-0.5,0-1.8,0-2.5v-0.6c0-0.7,0-1,0-1.5l-1-0.1v-0.4l1.8-0.7l0.2,0.1v1.6V53c0,0.7,0,2,0,2.5
		C78.1,55.5,77.1,55.5,77.1,55.5z M79,55.1v0.4h-2.8v-0.4l1.3-0.2h0.2L79,55.1z M76.8,47.6c0-0.5,0.3-0.8,0.8-0.8
		c0.4,0,0.8,0.3,0.8,0.8c0,0.4-0.3,0.8-0.8,0.8C77.2,48.3,76.8,48,76.8,47.6z"/>
	<path class="st2" d="M80.8,55.5c0-0.5,0-1.8,0-2.5v-0.6c0-0.7,0-1,0-1.5l-1-0.1v-0.4l1.6-0.7l0.2,0.1l0.1,1.4V53c0,0.7,0,2,0,2.5
		H80.8z M82.6,55.1v0.4h-2.8v-0.4l1.3-0.2h0.2L82.6,55.1z M85.4,51.9V53c0,0.8,0,2,0,2.5h-1c0-0.5,0-1.8,0-2.5v-1
		c0-1.1-0.3-1.5-1-1.5c-0.6,0-1.1,0.2-1.8,0.8h-0.3v-0.5h0.6L81.4,51c0.6-0.8,1.5-1.3,2.4-1.3C84.9,49.7,85.4,50.3,85.4,51.9z
		 M85.1,54.9l1.2,0.2v0.4h-2.8v-0.4l1.3-0.2H85.1z"/>
	<path class="st2" d="M88.1,52.6c0,1.5,0.8,2.3,1.9,2.3c0.7,0,1.3-0.3,1.7-0.9l0.3,0.1c-0.3,1-1.1,1.5-2.2,1.5c-1.6,0-2.7-1.2-2.7-3
		c0-1.9,1.3-3,2.7-3c1.1,0,2,0.7,2.1,1.5c-0.1,0.3-0.2,0.4-0.5,0.4c-0.4,0-0.6-0.2-0.6-0.5l-0.3-1.1l0.6,0.4
		c-0.4-0.2-0.8-0.3-1.2-0.3C88.9,50.2,88.1,51.1,88.1,52.6z"/>
	<path class="st2" d="M98,52c0,0.3,0,0.5-0.1,0.7h-4.4v-0.6h2.9c0.6,0,0.7-0.3,0.7-0.6c0-0.7-0.6-1.3-1.3-1.3
		c-0.8,0-1.7,0.6-1.7,2.4c0,1.5,0.8,2.3,2,2.3c0.8,0,1.2-0.3,1.7-0.9l0.3,0.2c-0.4,0.9-1.2,1.4-2.3,1.4c-1.6,0-2.7-1.1-2.7-2.9
		c0-1.8,1.2-3.1,2.7-3.1C97,49.7,98,50.5,98,52z"/>
	<path class="st2" d="M106.7,55.1v0.4h-4.4v-0.4l1.7-0.3h1L106.7,55.1z M104.8,47.7l0.2,0.1v1.7V53c0,0.8,0,1.7,0,2.5h-1
		c0-0.8,0-1.7,0-2.5v-4.3l-1.6,0.1v-0.5L104.8,47.7z"/>
	<path class="st2" d="M110.3,51.7c0.7,0,1.2-0.3,1.7-0.9l0.2,0.1c-0.4,1-1.2,1.5-2.2,1.5c-1.3,0-2.3-0.9-2.3-2.4s1-2.5,2.5-2.5
		s2.5,1.2,2.5,3.1c0,2.3-1.2,4.3-4.3,5l-0.1-0.4c2.6-0.8,3.4-2.2,3.4-4.4c0-1.9-0.6-2.8-1.5-2.8c-0.8,0-1.5,0.6-1.5,1.8
		C108.7,51.2,109.4,51.7,110.3,51.7z"/>
	<path class="st2" d="M115.7,51.6l0.5,0.2c-1,0.5-1.5,1-1.5,1.9s0.6,1.5,1.5,1.5s1.4-0.6,1.4-1.5c0-0.7-0.4-1.1-1.9-1.8
		c-1.3-0.6-1.8-1.4-1.8-2.3c0-1.2,1-2,2.2-2s2,0.8,2,1.9c0,0.6-0.4,1.4-1.7,2.1l-0.5-0.2c1-0.7,1.3-1.1,1.3-1.9
		c0-0.7-0.4-1.3-1.2-1.3c-0.7,0-1.3,0.5-1.3,1.2s0.3,1.3,1.7,1.9c1.3,0.6,2,1.2,2,2.4s-1.1,2-2.4,2c-1.4,0-2.5-0.7-2.5-2
		C113.8,52.8,114.5,52.2,115.7,51.6z"/>
	<path class="st2" d="M120.5,51c0.6-0.2,1.1-0.3,1.7-0.3c1.5,0,2.6,0.9,2.6,2.5c0,1.5-1.1,2.6-2.8,2.6c-1.2,0-2-0.6-2.2-1.7
		c0.1-0.3,0.3-0.4,0.6-0.4c0.4,0,0.5,0.2,0.7,0.8l0.2,0.9l-0.5-0.4c0.4,0.2,0.8,0.2,1.1,0.2c1.2,0,1.8-0.8,1.8-1.9
		c0-1.2-0.7-1.9-1.9-1.9c-0.3,0-0.7,0-1.1,0.1l-0.3-0.1l0.3-3.6h3.9v1h-3.7l0.3-0.5l-0.2,3h-0.5V51z"/>
</g>
<line class="st3" x1="25.5" y1="53.5" x2="63.8" y2="53.5"/>
</svg>
